<?xml version="1.0" encoding="UTF-8" ?>
<!DOCTYPE svg PUBLIC "-//W3C//DTD SVG 1.1//EN" "http://www.w3.org/Graphics/SVG/1.1/DTD/svg11.dtd">
<svg width="115pt" height="140pt" viewBox="0 0 115 140" version="1.1" xmlns="http://www.w3.org/2000/svg">
<g id="#282828ff">
<path fill="#282828" opacity="1.00" d=" M 0.00 12.00 C 38.33 12.00 76.67 12.00 115.00 12.00 L 115.00 127.00 C 76.67 127.00 38.33 127.00 0.00 127.00 L 0.00 12.00 M 25.89 35.20 C 25.88 45.75 25.87 56.31 25.90 66.86 C 32.31 66.48 39.18 68.11 45.20 65.19 C 50.84 62.46 51.09 53.15 45.26 50.46 C 50.19 47.31 49.29 38.89 43.82 36.84 C 38.15 34.58 31.85 35.73 25.89 35.20 M 55.07 35.41 C 54.78 45.91 55.02 56.43 54.94 66.93 C 57.47 66.94 60.00 66.93 62.53 66.93 C 62.53 60.24 62.53 53.54 62.53 46.85 C 65.58 50.60 68.58 54.39 71.60 58.17 C 74.63 54.40 77.66 50.62 80.70 46.85 C 80.72 53.55 80.70 60.24 80.71 66.93 C 83.25 66.93 85.80 66.94 88.35 66.94 C 88.36 56.45 88.35 45.97 88.35 35.48 C 85.99 35.47 83.62 35.46 81.25 35.40 C 77.87 39.18 74.96 43.34 71.55 47.08 C 68.63 43.15 65.57 39.34 62.58 35.47 C 60.08 35.47 57.57 35.46 55.07 35.41 M 25.95 72.14 C 25.93 82.62 25.94 93.11 25.95 103.60 C 32.58 103.21 39.62 104.70 45.91 101.99 C 51.77 99.46 52.22 89.93 46.33 87.13 C 49.12 85.06 50.26 81.33 49.05 78.06 C 48.04 74.44 44.18 72.77 40.75 72.35 C 35.83 71.90 30.88 72.23 25.95 72.14 M 60.63 76.68 C 54.18 82.76 54.31 94.23 60.98 100.09 C 68.51 106.92 82.12 105.11 86.95 95.91 C 85.00 94.80 83.06 93.69 81.11 92.58 C 79.12 96.16 75.14 98.53 70.99 97.86 C 66.96 97.58 63.66 94.52 62.61 90.70 C 71.12 90.63 79.62 90.68 88.12 90.67 C 88.36 86.05 87.61 81.10 84.43 77.53 C 78.64 70.59 66.94 70.27 60.63 76.68 Z" />
<path fill="#282828" opacity="1.00" d=" M 32.59 41.71 C 34.72 41.75 36.87 41.65 38.97 42.03 C 41.50 42.48 41.55 46.49 39.17 47.18 C 37.05 47.87 34.77 47.53 32.58 47.60 C 32.58 45.63 32.59 43.67 32.59 41.71 Z" />
<path fill="#282828" opacity="1.00" d=" M 32.58 54.14 C 34.94 54.17 37.34 53.93 39.67 54.44 C 42.37 54.91 42.47 59.16 40.01 60.04 C 37.65 60.92 35.05 60.51 32.59 60.60 C 32.59 58.45 32.59 56.29 32.58 54.14 Z" />
<path fill="#282828" opacity="1.00" d=" M 33.59 78.38 C 35.69 78.41 37.82 78.27 39.89 78.67 C 42.28 78.98 42.60 82.52 40.66 83.61 C 38.47 84.64 35.93 84.14 33.59 84.29 C 33.59 82.32 33.59 80.35 33.59 78.38 Z" />
<path fill="#282828" opacity="1.00" d=" M 62.94 84.57 C 64.74 80.37 69.28 77.53 73.88 78.50 C 77.31 78.80 79.83 81.51 80.98 84.59 C 74.97 84.71 68.95 84.73 62.94 84.57 Z" />
<path fill="#282828" opacity="1.00" d=" M 33.59 90.72 C 36.05 90.79 38.58 90.52 40.98 91.19 C 43.49 91.93 43.32 96.04 40.88 96.77 C 38.53 97.52 36.01 97.20 33.59 97.28 C 33.59 95.09 33.59 92.90 33.59 90.72 Z" />
</g>
<g id="#ffffffff">
<path fill="#ffffff" opacity="1.00" d=" M 25.89 35.20 C 31.85 35.73 38.15 34.58 43.82 36.84 C 49.29 38.89 50.19 47.31 45.26 50.46 C 51.09 53.15 50.84 62.46 45.20 65.19 C 39.18 68.11 32.31 66.48 25.90 66.86 C 25.87 56.31 25.88 45.75 25.89 35.20 M 32.59 41.71 C 32.59 43.67 32.58 45.63 32.58 47.60 C 34.77 47.53 37.05 47.87 39.17 47.18 C 41.55 46.49 41.50 42.48 38.97 42.03 C 36.87 41.65 34.72 41.75 32.59 41.71 M 32.58 54.14 C 32.59 56.29 32.59 58.45 32.59 60.60 C 35.05 60.51 37.65 60.92 40.01 60.04 C 42.47 59.16 42.37 54.91 39.67 54.44 C 37.34 53.93 34.94 54.17 32.58 54.14 Z" />
<path fill="#ffffff" opacity="1.00" d=" M 55.07 35.41 C 57.57 35.46 60.08 35.47 62.58 35.47 C 65.57 39.34 68.63 43.15 71.55 47.08 C 74.96 43.34 77.87 39.18 81.25 35.40 C 83.62 35.46 85.99 35.47 88.35 35.48 C 88.35 45.97 88.36 56.45 88.35 66.94 C 85.80 66.94 83.25 66.93 80.71 66.93 C 80.70 60.24 80.72 53.55 80.70 46.85 C 77.66 50.62 74.63 54.40 71.60 58.17 C 68.58 54.39 65.58 50.60 62.53 46.85 C 62.53 53.54 62.53 60.24 62.53 66.93 C 60.00 66.93 57.47 66.94 54.94 66.93 C 55.02 56.43 54.78 45.91 55.07 35.41 Z" />
<path fill="#ffffff" opacity="1.00" d=" M 25.95 72.14 C 30.88 72.23 35.83 71.90 40.75 72.35 C 44.18 72.77 48.04 74.44 49.05 78.06 C 50.26 81.33 49.12 85.06 46.33 87.13 C 52.22 89.93 51.77 99.46 45.91 101.99 C 39.62 104.70 32.58 103.21 25.95 103.60 C 25.94 93.11 25.93 82.62 25.95 72.14 M 33.59 78.38 C 33.59 80.35 33.59 82.32 33.59 84.29 C 35.93 84.14 38.47 84.64 40.66 83.61 C 42.60 82.52 42.28 78.98 39.89 78.67 C 37.82 78.27 35.69 78.41 33.59 78.38 M 33.59 90.72 C 33.59 92.90 33.59 95.09 33.59 97.28 C 36.01 97.20 38.53 97.52 40.88 96.77 C 43.32 96.04 43.49 91.93 40.98 91.19 C 38.58 90.52 36.05 90.79 33.59 90.72 Z" />
<path fill="#ffffff" opacity="1.00" d=" M 60.63 76.68 C 66.94 70.27 78.64 70.59 84.43 77.53 C 87.61 81.10 88.36 86.05 88.12 90.67 C 79.62 90.68 71.12 90.63 62.61 90.70 C 63.66 94.52 66.96 97.58 70.99 97.86 C 75.14 98.53 79.12 96.16 81.11 92.58 C 83.06 93.69 85.00 94.80 86.95 95.91 C 82.12 105.11 68.51 106.92 60.98 100.09 C 54.31 94.23 54.18 82.76 60.63 76.68 M 62.94 84.57 C 68.95 84.73 74.97 84.71 80.98 84.59 C 79.83 81.51 77.31 78.80 73.88 78.50 C 69.28 77.53 64.74 80.37 62.94 84.57 Z" />
</g>
</svg>
