<?xml version="1.0" encoding="UTF-8" ?>
<!DOCTYPE svg PUBLIC "-//W3C//DTD SVG 1.1//EN" "http://www.w3.org/Graphics/SVG/1.1/DTD/svg11.dtd">
<svg width="28pt" height="28pt" viewBox="0 0 28 28" version="1.1" xmlns="http://www.w3.org/2000/svg">
<g id="#280433ff">
<path fill="#280433" opacity="1.00" d=" M 0.00 0.00 L 2.57 0.00 C 6.34 3.56 9.64 7.60 13.69 10.88 C 17.37 7.34 20.76 3.51 24.46 0.00 L 28.00 0.00 L 28.00 2.57 C 24.30 6.41 20.26 9.90 16.81 13.98 C 20.13 18.17 24.16 21.71 28.00 25.41 L 28.00 28.00 L 24.46 28.00 C 20.75 24.49 17.36 20.66 13.69 17.12 C 9.65 20.40 6.34 24.44 2.57 28.00 L 0.00 28.00 L 0.00 24.44 C 3.40 20.94 7.06 17.70 10.25 14.00 C 7.06 10.29 3.40 7.05 0.00 3.54 L 0.00 0.00 Z" />
</g>
</svg>
