<?xml version="1.0" encoding="UTF-8" ?>
<!DOCTYPE svg PUBLIC "-//W3C//DTD SVG 1.1//EN" "http://www.w3.org/Graphics/SVG/1.1/DTD/svg11.dtd">
<svg width="112pt" height="112pt" viewBox="0 0 112 112" version="1.1" xmlns="http://www.w3.org/2000/svg">
<g id="#000000f7">
<path fill="#000000" opacity="0.97" d=" M 25.55 0.00 L 30.38 0.00 C 38.78 0.87 46.76 5.46 51.38 12.59 C 54.06 16.42 55.24 21.01 56.00 25.56 C 57.13 12.34 68.32 1.12 81.55 0.00 L 86.36 0.00 C 99.63 1.05 110.92 12.34 112.00 25.61 L 112.00 30.28 C 111.19 38.24 107.12 45.88 100.56 50.58 C 96.59 53.66 91.69 55.11 86.81 56.00 C 99.87 57.36 110.86 68.41 112.00 81.51 L 112.00 86.77 C 110.68 99.74 99.77 110.68 86.79 112.00 L 81.37 112.00 C 73.55 111.04 66.07 107.04 61.45 100.59 C 58.34 96.60 56.88 91.67 56.00 86.77 C 55.03 93.10 52.47 99.30 47.79 103.80 C 43.30 108.44 37.11 111.08 30.78 112.00 L 25.35 112.00 C 12.37 110.78 1.48 99.91 0.00 87.00 L 0.00 81.23 C 1.02 73.45 5.02 66.03 11.43 61.41 C 15.49 58.28 20.50 56.81 25.49 56.01 C 12.29 54.80 1.06 43.64 0.00 30.39 L 0.00 25.70 C 1.01 12.42 12.29 1.12 25.55 0.00 M 25.18 2.16 C 16.71 3.07 8.88 8.41 4.98 15.99 C 1.43 22.66 1.02 30.91 3.98 37.87 C 7.08 45.50 14.02 51.45 22.06 53.28 C 30.40 55.34 39.65 52.80 45.83 46.86 C 52.74 40.47 55.67 30.13 53.02 21.08 C 49.96 9.11 37.45 0.60 25.18 2.16 M 81.14 2.17 C 71.90 3.16 63.48 9.47 60.00 18.09 C 56.92 25.28 57.46 33.85 61.32 40.64 C 65.60 48.41 74.06 53.67 82.93 53.95 C 90.56 54.32 98.23 51.05 103.30 45.35 C 109.37 38.74 111.58 28.82 108.79 20.27 C 105.39 8.68 93.12 0.63 81.14 2.17 M 56.00 30.46 C 55.18 36.69 52.73 42.81 48.26 47.33 C 43.74 52.21 37.42 54.98 30.92 56.00 C 43.88 57.41 54.77 68.37 55.99 81.36 C 57.25 68.26 68.32 57.17 81.45 56.01 C 68.28 54.79 57.12 43.67 56.00 30.46 M 25.18 58.15 C 17.68 58.97 10.66 63.23 6.46 69.50 C 2.06 75.94 0.82 84.41 3.24 91.84 C 5.91 100.43 13.34 107.35 22.13 109.29 C 30.90 111.46 40.65 108.48 46.80 101.89 C 53.02 95.46 55.56 85.65 53.01 77.04 C 49.92 65.09 37.44 56.59 25.18 58.15 M 81.12 58.17 C 74.10 58.96 67.48 62.72 63.26 68.39 C 58.47 74.68 56.75 83.25 58.96 90.86 C 61.27 99.56 68.45 106.73 77.14 109.05 C 86.39 111.75 96.94 108.56 103.29 101.36 C 111.74 92.38 112.20 77.30 104.30 67.83 C 98.89 60.92 89.82 57.15 81.12 58.17 Z" />
<path fill="#000000" opacity="0.97" d=" M 20.02 27.85 C 21.79 25.99 23.29 23.38 26.16 23.21 C 25.14 24.50 24.08 25.76 23.01 27.01 C 27.18 26.99 31.36 27.00 35.53 27.00 L 35.50 28.25 C 31.38 28.27 27.27 28.31 23.16 28.15 C 24.11 29.59 25.05 31.02 25.99 32.47 C 23.68 31.37 21.82 29.61 20.02 27.85 Z" />
<path fill="#000000" opacity="0.97" d=" M 85.84 23.21 C 88.71 23.39 90.21 25.99 91.98 27.85 C 90.18 29.61 88.30 31.33 86.04 32.51 C 86.94 31.03 87.89 29.58 88.85 28.14 C 84.74 28.32 80.62 28.26 76.51 28.25 L 76.46 27.00 C 80.64 27.00 84.82 26.99 88.99 27.01 C 87.91 25.76 86.86 24.50 85.84 23.21 Z" />
<path fill="#000000" opacity="0.97" d=" M 23.44 81.88 C 24.72 79.69 26.43 77.82 28.17 76.00 C 30.09 77.72 31.98 79.51 33.50 81.62 C 31.75 81.27 30.33 80.20 28.95 79.15 C 29.04 83.27 29.00 87.39 29.00 91.52 L 27.75 91.52 C 27.74 87.39 27.67 83.26 27.86 79.14 C 26.44 80.13 24.98 81.08 23.44 81.88 Z" />
<path fill="#000000" opacity="0.97" d=" M 83.00 76.45 L 84.26 76.53 C 84.26 80.63 84.32 84.74 84.14 88.85 C 85.57 87.87 87.03 86.93 88.54 86.08 C 87.31 88.31 85.58 90.18 83.82 91.99 C 81.90 90.24 79.55 88.64 79.09 85.88 C 80.42 86.88 81.72 87.91 83.01 88.96 C 82.98 84.79 83.00 80.62 83.00 76.45 Z" />
</g>
</svg>
