<?xml version="1.0" encoding="UTF-8" ?>
<!DOCTYPE svg PUBLIC "-//W3C//DTD SVG 1.1//EN" "http://www.w3.org/Graphics/SVG/1.1/DTD/svg11.dtd">
<svg width="90pt" height="90pt" viewBox="0 0 90 90" version="1.1" xmlns="http://www.w3.org/2000/svg">
<g id="#abc6caff">
<path fill="#abc6ca" opacity="1.00" d=" M 43.84 0.00 L 46.89 0.00 C 57.33 0.53 67.61 4.60 75.29 11.74 C 84.30 19.84 89.67 31.71 90.00 43.80 L 90.00 45.92 C 89.76 58.13 84.35 70.13 75.25 78.30 C 67.64 85.35 57.50 89.39 47.18 90.00 L 43.06 90.00 C 32.39 89.46 21.91 85.18 14.17 77.77 C 5.47 69.70 0.32 58.07 0.00 46.23 L 0.00 44.00 C 0.26 32.29 5.23 20.76 13.71 12.67 C 21.68 4.83 32.68 0.31 43.84 0.00 M 28.77 6.92 C 16.50 12.04 7.30 23.43 4.42 36.36 C 7.48 36.49 10.71 36.06 13.59 37.33 C 15.80 38.27 17.25 40.27 19.20 41.59 C 21.47 42.31 24.14 42.29 25.90 44.12 C 29.69 47.52 29.49 53.12 28.80 57.73 C 27.94 62.53 23.55 65.20 20.75 68.78 C 18.93 71.02 18.57 73.97 18.34 76.74 C 27.09 83.95 38.74 87.60 50.03 86.09 C 64.18 84.51 77.01 74.93 82.78 61.95 C 86.66 53.46 87.33 43.70 85.15 34.66 C 82.19 34.67 79.24 34.68 76.28 34.63 C 77.63 36.43 79.23 38.57 78.48 40.97 C 77.76 44.71 72.74 46.76 69.76 44.25 C 67.62 42.39 65.52 40.40 62.73 39.55 C 64.78 42.13 65.95 45.24 65.73 48.57 C 67.47 49.22 69.65 51.08 68.28 53.10 C 63.30 58.44 58.58 64.55 56.91 71.81 C 55.61 74.00 52.41 73.91 50.62 72.40 C 48.54 70.93 48.95 68.12 47.97 66.04 C 46.54 63.88 44.31 62.13 43.74 59.49 C 43.20 56.56 43.52 53.55 43.22 50.59 C 40.49 50.39 37.32 49.78 36.01 47.04 C 34.24 42.95 34.92 36.46 39.93 35.08 C 45.50 34.42 51.14 35.02 56.73 34.76 C 56.24 29.83 52.59 25.45 47.79 24.13 C 48.67 25.92 51.99 27.27 50.72 29.58 C 49.86 30.66 48.53 32.15 47.00 31.32 C 46.36 30.41 46.18 29.38 46.47 28.24 C 45.28 27.02 44.08 25.82 42.86 24.64 C 41.54 26.74 41.46 29.93 38.93 31.05 C 36.80 31.65 33.65 31.96 32.41 29.66 C 30.99 25.34 32.73 20.67 35.92 17.61 C 36.40 16.06 36.59 14.07 38.26 13.30 C 44.87 11.89 52.04 14.26 58.48 12.21 C 55.21 11.70 51.65 12.71 48.57 11.33 C 45.61 9.55 46.40 5.54 48.74 3.59 C 41.95 3.34 35.02 4.12 28.77 6.92 M 49.88 7.10 C 52.20 10.25 57.52 6.72 60.35 9.63 C 62.69 11.77 61.18 16.32 57.94 16.39 C 52.00 16.61 46.04 16.38 40.09 16.48 C 39.69 18.65 38.46 20.45 36.99 22.05 C 35.39 23.65 35.68 26.05 35.51 28.11 C 36.01 27.99 37.03 27.76 37.53 27.64 C 38.35 24.85 39.86 21.71 42.99 21.04 C 45.93 20.70 49.10 20.60 51.86 21.83 C 56.91 24.63 60.48 30.06 60.24 35.95 C 62.85 36.25 65.65 36.41 67.85 38.01 C 69.68 39.16 70.99 41.04 73.01 41.89 C 74.25 41.57 75.38 40.55 74.90 39.14 C 73.66 37.21 71.54 34.75 73.54 32.52 C 76.26 29.82 80.65 31.56 84.05 31.07 C 80.19 20.65 72.19 11.70 61.95 7.27 C 57.98 6.65 53.89 7.10 49.88 7.10 M 41.28 38.48 C 38.07 39.03 38.43 43.44 39.37 45.71 C 41.25 47.47 44.80 46.34 46.19 48.92 C 47.95 52.19 46.18 56.19 47.59 59.57 C 48.54 61.25 50.02 62.54 51.08 64.16 C 52.13 66.14 52.01 68.61 53.47 70.42 C 55.21 63.64 59.38 57.65 64.02 52.52 C 61.61 50.39 62.40 47.12 61.57 44.37 C 60.17 42.05 57.99 40.35 56.15 38.41 C 51.19 38.47 46.23 38.24 41.28 38.48 M 3.84 39.99 C 2.37 52.10 6.55 64.58 14.88 73.47 C 15.80 68.89 18.65 65.14 22.08 62.12 C 25.85 58.99 26.18 53.54 25.06 49.11 C 24.36 46.87 22.23 45.65 19.97 45.55 C 16.35 45.35 14.69 41.51 11.52 40.36 C 9.01 39.75 6.39 40.06 3.84 39.99 Z" />
<path fill="#abc6ca" opacity="1.00" d=" M 31.70 8.58 C 32.60 7.25 35.05 8.27 34.75 9.92 C 34.66 11.79 35.55 14.86 32.98 15.36 C 30.25 14.58 30.92 10.56 31.70 8.58 Z" />
<path fill="#abc6ca" opacity="1.00" d=" M 79.43 56.48 C 80.64 55.55 82.60 57.53 81.72 58.81 C 76.33 73.84 60.87 84.61 44.87 84.19 C 42.65 84.52 42.75 80.37 44.98 80.77 C 58.42 80.65 71.58 72.62 77.17 60.29 C 77.93 59.04 78.16 57.32 79.43 56.48 Z" />
<path fill="#abc6ca" opacity="1.00" d=" M 29.24 78.24 C 31.50 77.22 34.07 79.16 36.36 79.69 C 38.78 80.20 37.41 84.09 35.11 82.97 C 32.90 82.19 27.22 81.66 29.24 78.24 Z" />
</g>
</svg>
