<?xml version="1.0" encoding="UTF-8" ?>
<!DOCTYPE svg PUBLIC "-//W3C//DTD SVG 1.1//EN" "http://www.w3.org/Graphics/SVG/1.1/DTD/svg11.dtd">
<svg width="90pt" height="90pt" viewBox="0 0 90 90" version="1.1" xmlns="http://www.w3.org/2000/svg">
<g id="#abc6caff">
<path fill="#abc6ca" opacity="1.00" d=" M 44.21 1.12 C 45.56 0.35 46.58 1.82 47.36 2.68 C 50.38 6.20 52.32 10.64 52.47 15.31 C 56.26 11.59 61.67 9.79 66.93 10.09 C 68.66 10.67 68.01 12.63 68.03 14.01 C 67.69 18.44 66.03 22.76 63.06 26.09 C 68.43 26.37 73.57 29.07 76.99 33.19 C 77.19 35.08 75.32 36.06 74.12 37.14 C 70.99 39.72 67.11 41.30 63.04 41.45 C 66.56 45.39 68.29 50.76 68.05 56.01 C 68.02 58.07 65.41 57.49 64.09 57.46 C 59.75 57.07 55.56 55.30 52.43 52.24 C 52.33 57.99 49.41 63.48 45.00 67.10 C 41.17 64.11 38.90 59.64 37.60 55.05 C 33.13 63.59 30.23 72.91 29.25 82.51 C 29.37 84.54 26.36 84.89 25.88 82.98 C 26.44 73.35 29.24 63.87 33.67 55.31 C 30.09 56.55 25.86 58.51 22.17 56.96 C 21.27 51.46 23.31 45.62 26.96 41.46 C 21.57 41.18 16.03 38.53 12.96 34.03 C 15.29 29.05 21.62 26.53 26.95 26.09 C 23.27 22.01 21.58 16.38 21.96 10.95 C 22.91 9.56 24.68 10.10 26.07 10.15 C 30.33 10.55 34.47 12.28 37.52 15.32 C 37.71 9.94 40.21 4.70 44.21 1.12 M 41.11 14.95 C 41.10 18.50 43.05 21.59 44.99 24.41 C 46.89 21.60 48.86 18.56 48.87 15.04 C 49.01 11.36 47.00 8.15 45.00 5.24 C 42.99 8.11 41.02 11.31 41.11 14.95 M 25.31 13.58 C 25.92 16.90 26.60 20.47 29.02 23.01 C 31.45 25.70 35.13 26.59 38.55 27.20 C 37.96 23.51 37.06 19.51 34.08 16.97 C 31.68 14.79 28.38 14.19 25.31 13.58 M 55.44 17.41 C 52.80 19.97 52.01 23.71 51.43 27.20 C 54.84 26.59 58.49 25.71 60.93 23.06 C 63.36 20.50 64.09 16.94 64.65 13.58 C 61.39 14.20 57.86 14.93 55.44 17.41 M 43.14 29.10 C 39.61 30.44 39.01 35.79 42.14 37.90 C 45.13 40.33 50.03 37.74 49.90 33.95 C 50.21 30.53 46.32 27.61 43.14 29.10 M 17.19 33.76 C 20.07 35.88 23.34 38.03 27.08 37.76 C 30.41 37.62 33.25 35.67 35.88 33.81 C 33.28 31.88 30.42 29.96 27.07 29.81 C 23.34 29.57 20.06 31.65 17.19 33.76 M 54.09 33.81 C 56.76 35.69 59.64 37.66 63.02 37.77 C 66.71 37.99 69.91 35.84 72.79 33.81 C 69.94 31.68 66.69 29.59 62.98 29.80 C 59.60 29.94 56.73 31.89 54.09 33.81 M 29.33 44.25 C 26.69 46.80 25.91 50.54 25.33 54.01 C 28.49 53.38 31.89 52.70 34.32 50.39 C 37.13 47.84 37.96 43.96 38.57 40.38 C 35.29 41.03 31.75 41.75 29.33 44.25 M 51.41 40.38 C 52.04 43.71 52.70 47.29 55.13 49.84 C 57.54 52.55 61.25 53.34 64.65 54.02 C 64.05 50.57 63.32 46.84 60.71 44.30 C 58.28 41.76 54.71 41.03 51.41 40.38 M 41.28 50.88 C 40.53 54.85 42.34 58.75 44.65 61.86 C 46.61 61.26 47.10 58.70 48.01 57.07 C 50.17 52.28 47.96 47.06 44.99 43.18 C 43.39 45.54 41.72 48.00 41.28 50.88 Z" />
<path fill="#abc6ca" opacity="1.00" d=" M 18.88 90.00 C 19.52 89.11 19.62 87.29 21.10 87.42 C 26.05 87.14 31.02 87.45 35.98 87.31 C 38.81 87.41 42.68 86.43 43.77 90.00 L 18.88 90.00 Z" />
<path fill="#abc6ca" opacity="1.00" d=" M 47.03 90.00 C 47.70 86.02 53.97 86.32 55.00 90.00 L 47.03 90.00 Z" />
</g>
</svg>
