<?xml version="1.0" encoding="UTF-8" ?>
<!DOCTYPE svg PUBLIC "-//W3C//DTD SVG 1.1//EN" "http://www.w3.org/Graphics/SVG/1.1/DTD/svg11.dtd">
<svg width="555pt" height="503pt" viewBox="0 0 555 503" version="1.1" xmlns="http://www.w3.org/2000/svg">
<g id="#0000001a">
<path fill="#000000" opacity="0.10" d=" M 240.38 0.00 L 240.61 0.00 C 245.00 0.86 249.55 0.83 253.88 2.04 C 264.04 5.31 273.29 11.88 278.96 21.02 C 287.41 33.70 288.15 50.47 282.49 64.42 C 281.27 63.84 280.04 63.29 278.82 62.74 C 283.22 52.85 283.59 41.25 279.77 31.12 C 275.82 20.40 267.23 11.51 256.66 7.17 C 245.00 2.28 231.12 3.08 220.14 9.37 C 208.35 15.92 200.18 28.49 199.09 41.95 C 197.76 54.76 203.02 67.71 212.27 76.54 C 222.89 86.96 239.50 90.45 253.55 85.78 C 253.80 86.57 254.30 88.13 254.54 88.92 C 241.22 93.51 225.56 91.21 214.18 82.84 C 209.83 79.86 206.44 75.79 202.88 71.96 C 197.38 74.52 192.63 78.38 187.40 81.42 C 158.17 99.89 128.99 118.46 99.77 136.95 C 96.31 139.09 92.69 141.05 89.73 143.89 C 91.46 148.51 93.67 153.03 94.23 157.99 C 94.66 161.59 94.93 165.20 95.59 168.77 C 94.10 168.69 92.61 168.61 91.12 168.55 C 91.90 158.78 89.07 148.71 82.98 140.99 C 76.95 133.16 67.89 127.72 58.12 126.18 C 48.26 124.54 37.80 126.80 29.54 132.46 C 20.06 138.83 13.59 149.50 12.44 160.88 C 11.52 168.97 13.24 177.27 17.15 184.40 C 15.88 184.70 14.63 185.05 13.39 185.46 C 8.78 176.28 7.84 165.70 9.60 155.66 C 12.57 142.15 22.45 130.44 35.29 125.28 C 46.98 120.35 60.85 121.03 72.00 127.08 C 78.61 130.48 83.84 135.85 88.21 141.77 C 92.01 139.79 95.52 137.35 99.12 135.05 C 129.12 116.08 159.08 97.04 189.08 78.07 C 193.33 75.35 197.73 72.84 201.73 69.73 C 199.62 65.22 197.25 60.76 196.22 55.84 C 194.20 47.79 194.94 39.25 197.33 31.37 C 201.68 18.11 212.46 7.16 225.65 2.60 C 230.40 0.97 235.48 0.92 240.38 0.00 Z" />
<path fill="#000000" opacity="0.10" d=" M 278.04 64.38 C 279.22 64.83 280.40 65.30 281.58 65.77 C 278.76 72.14 273.89 77.26 268.64 81.72 C 264.99 84.74 260.59 86.59 256.52 88.95 C 256.15 87.68 255.79 86.40 255.42 85.13 C 260.42 83.12 265.30 80.47 269.04 76.52 C 272.59 72.91 275.79 68.93 278.04 64.38 Z" />
<path fill="#000000" opacity="0.10" d=" M 496.65 91.67 C 507.35 87.26 520.07 88.14 530.08 93.95 C 538.96 98.68 545.39 107.38 548.23 116.94 C 550.83 127.28 549.83 138.88 543.96 147.98 C 538.89 156.74 529.97 162.64 520.40 165.45 C 520.17 166.09 519.71 167.38 519.48 168.02 C 519.19 166.20 518.89 164.39 518.61 162.58 C 524.50 161.15 530.26 158.55 534.64 154.27 C 540.59 148.64 544.91 141.16 546.04 132.99 C 547.98 120.89 543.10 107.98 533.56 100.27 C 523.25 91.60 507.88 89.72 495.78 95.60 C 484.05 100.96 476.00 113.21 475.54 126.08 C 474.15 125.90 472.77 125.75 471.39 125.56 C 473.23 122.75 473.05 119.26 474.03 116.15 C 477.41 105.14 485.83 95.79 496.65 91.67 Z" />
<path fill="#000000" opacity="0.10" d=" M 472.09 127.14 C 473.22 127.36 474.36 127.58 475.51 127.81 C 475.46 137.82 480.05 147.43 487.26 154.26 L 487.65 154.65 C 486.59 155.13 485.56 155.66 484.56 156.25 C 476.58 148.71 472.46 137.99 472.09 127.14 Z" />
<path fill="#000000" opacity="0.10" d=" M 354.63 156.47 C 360.33 155.61 366.03 156.95 371.73 156.53 C 371.49 158.29 371.13 160.03 370.81 161.78 C 356.26 158.55 340.34 162.35 328.95 172.00 C 315.56 182.91 308.96 201.20 312.02 218.19 C 310.32 217.44 308.61 216.73 306.95 215.92 C 306.04 205.57 307.67 194.94 312.50 185.67 C 320.34 169.58 336.85 158.24 354.63 156.47 Z" />
<path fill="#000000" opacity="0.10" d=" M 372.86 162.27 C 373.05 160.27 373.25 158.27 373.43 156.27 C 375.84 159.10 379.67 159.64 382.88 161.14 C 396.99 167.39 407.76 180.36 411.83 195.19 C 412.76 198.30 412.60 201.85 414.63 204.55 C 413.03 205.19 410.88 205.21 409.92 206.84 C 411.30 206.96 412.68 206.70 414.01 206.34 C 413.62 211.92 413.46 217.58 412.07 223.03 C 409.51 233.60 403.40 243.21 395.15 250.26 C 391.06 253.79 386.25 256.33 381.60 259.05 C 381.18 257.60 380.80 256.14 380.41 254.69 C 382.71 253.63 384.96 252.43 387.07 251.01 C 389.11 249.56 391.16 248.10 392.95 246.34 C 403.80 236.44 410.19 221.75 409.22 207.01 C 408.47 186.28 392.95 167.31 372.86 162.27 Z" />
<path fill="#000000" opacity="0.10" d=" M 485.96 157.62 C 486.79 156.86 487.63 156.10 488.46 155.33 C 496.29 162.08 507.08 164.29 517.16 162.86 C 517.33 163.90 517.50 164.95 517.68 166.00 C 511.55 166.17 505.25 166.55 499.33 164.63 C 494.43 163.24 490.16 160.39 485.96 157.62 Z" />
<path fill="#000000" opacity="0.10" d=" M 90.97 169.98 C 92.50 170.14 94.05 170.31 95.59 170.45 C 93.30 173.79 93.28 178.04 91.60 181.66 C 86.06 195.31 73.11 205.17 58.75 207.95 C 58.52 206.79 58.28 205.63 58.03 204.47 C 65.01 203.23 71.89 200.44 77.14 195.58 C 84.61 189.05 89.81 179.90 90.97 169.98 Z" />
<path fill="#000000" opacity="0.10" d=" M 41.85 203.77 C 46.80 204.92 51.90 205.45 56.95 204.73 C 57.03 205.54 57.17 207.17 57.24 207.98 C 52.07 208.23 46.87 208.19 41.76 207.30 C 41.78 206.42 41.83 204.65 41.85 203.77 Z" />
<path fill="#000000" opacity="0.10" d=" M 308.65 224.55 C 310.09 223.88 311.53 223.22 312.97 222.55 C 314.79 228.68 317.58 234.55 321.53 239.60 C 320.06 240.30 318.61 241.01 317.15 241.71 C 313.59 236.37 310.99 230.50 308.65 224.55 Z" />
<path fill="#000000" opacity="0.10" d=" M 318.78 243.05 C 320.16 242.46 321.55 241.89 322.94 241.33 C 324.38 242.97 325.89 244.57 327.45 246.10 C 329.07 247.64 330.78 249.10 332.60 250.40 C 336.33 252.91 340.34 255.09 344.70 256.27 C 345.29 256.44 346.47 256.77 347.06 256.94 L 347.84 257.04 C 348.90 258.10 350.42 258.43 351.89 258.25 L 352.36 258.24 C 357.62 259.38 363.27 259.52 368.49 258.11 L 369.06 258.11 C 370.46 258.34 371.92 258.08 373.05 257.15 C 374.84 256.75 376.61 256.23 378.34 255.57 C 379.00 256.91 379.67 258.26 380.28 259.64 C 375.27 261.00 370.28 262.71 365.05 262.94 C 360.74 263.25 356.41 262.62 352.11 263.04 C 350.91 263.93 350.53 265.48 349.90 266.76 C 336.05 301.70 321.53 336.39 307.84 371.39 C 307.28 371.40 306.16 371.41 305.60 371.42 C 307.61 364.53 310.71 358.03 313.23 351.33 C 323.84 325.25 334.31 299.11 344.93 273.04 C 346.41 269.50 347.97 265.98 348.94 262.26 C 344.99 260.76 340.89 259.69 337.05 257.93 C 329.93 254.44 323.64 249.31 318.78 243.05 Z" />
<path fill="#000000" opacity="0.10" d=" M 69.48 286.90 C 69.84 289.33 70.15 291.77 70.44 294.22 C 56.99 298.07 45.38 307.75 39.14 320.27 C 31.73 334.81 31.99 352.93 39.82 367.25 C 42.95 373.29 47.63 378.29 52.55 382.90 C 54.56 384.86 57.03 386.24 59.43 387.66 C 59.63 387.78 60.04 388.00 60.24 388.11 C 64.79 390.55 69.69 392.56 74.84 393.20 C 76.72 394.24 78.86 394.24 80.94 394.02 C 83.60 393.97 86.26 394.01 88.92 393.96 C 90.73 394.31 92.65 394.25 94.25 393.23 C 98.23 392.76 102.12 391.55 105.64 389.61 C 104.84 391.37 104.08 393.14 103.49 394.98 C 103.42 395.23 103.29 395.74 103.22 396.00 C 96.26 397.60 89.15 398.72 81.98 398.30 C 67.81 398.43 54.32 391.54 44.52 381.61 C 35.76 372.58 30.39 360.47 29.26 347.97 C 27.84 331.53 33.93 314.38 46.17 303.16 C 52.23 296.56 60.55 292.93 68.69 289.64 C 68.89 288.95 69.28 287.59 69.48 286.90 Z" />
<path fill="#000000" opacity="0.10" d=" M 71.29 288.97 C 78.43 287.58 85.78 287.55 93.01 288.20 C 108.03 290.17 121.53 299.15 130.40 311.25 C 129.17 312.30 127.96 313.39 126.81 314.53 C 115.22 297.10 92.39 288.36 72.13 293.75 C 71.85 292.15 71.56 290.57 71.29 288.97 Z" />
<path fill="#000000" opacity="0.10" d=" M 394.08 297.88 C 406.13 292.26 419.78 289.90 432.97 291.86 C 447.58 293.72 461.27 300.83 471.65 311.20 C 470.06 312.31 468.48 313.43 466.90 314.54 C 448.83 296.16 418.82 291.51 395.99 303.42 C 395.34 301.57 394.71 299.73 394.08 297.88 Z" />
<path fill="#000000" opacity="0.10" d=" M 357.24 348.97 C 360.00 327.92 373.67 309.10 392.15 298.90 C 392.76 300.75 393.42 302.58 394.09 304.42 C 383.28 310.39 374.32 319.65 368.80 330.71 C 362.07 343.98 360.51 359.74 364.34 374.11 C 367.60 386.83 375.35 398.13 385.41 406.47 C 396.16 415.33 410.14 419.89 424.00 419.99 C 437.85 419.77 451.82 415.10 462.45 406.10 C 476.36 394.69 485.12 377.16 485.15 359.10 C 487.03 360.32 489.02 361.38 491.10 362.25 C 490.06 367.47 489.61 372.82 487.94 377.89 C 480.62 402.60 457.76 421.98 432.10 424.84 C 423.94 425.25 415.60 425.56 407.63 423.46 C 399.53 421.40 391.73 417.97 384.98 413.01 C 373.90 405.58 365.94 394.27 360.76 382.12 C 349.98 387.13 339.48 392.71 328.79 397.90 C 327.37 398.53 325.87 398.97 324.39 399.43 C 325.77 396.64 328.88 395.73 331.45 394.41 C 340.94 389.84 350.30 385.01 359.77 380.41 C 359.16 375.22 357.18 370.28 357.05 365.03 C 356.83 359.68 356.77 354.30 357.24 348.97 Z" />
<path fill="#000000" opacity="0.10" d=" M 127.46 315.56 C 128.84 314.70 130.22 313.87 131.53 312.90 C 133.80 317.23 136.01 321.61 137.60 326.25 C 136.18 326.93 134.78 327.65 133.41 328.42 C 132.00 323.90 130.00 319.56 127.46 315.56 Z" />
<path fill="#000000" opacity="0.10" d=" M 468.29 315.96 C 469.75 314.75 471.23 313.54 472.73 312.37 C 474.11 313.95 475.49 315.53 476.86 317.12 C 475.73 318.91 474.77 320.81 473.92 322.75 C 472.15 320.40 470.31 318.09 468.29 315.96 Z" />
<path fill="#000000" opacity="0.10" d=" M 133.86 330.12 C 135.30 329.43 136.74 328.74 138.19 328.06 C 141.90 341.80 140.33 356.88 133.70 369.50 C 132.14 369.01 130.58 368.52 129.02 368.04 C 135.47 356.66 137.20 342.76 133.86 330.12 Z" />
<path fill="#000000" opacity="0.10" d=" M 128.07 369.67 C 129.56 370.05 131.06 370.43 132.56 370.83 C 131.08 373.80 129.23 376.58 126.99 379.03 C 124.68 378.89 122.33 378.85 120.11 379.57 C 123.19 376.64 125.83 373.27 128.07 369.67 Z" />
</g>
<g id="#ffffffff">
<path fill="#ffffff" opacity="1.00" d=" M 220.14 9.37 C 231.12 3.08 245.00 2.28 256.66 7.17 C 267.23 11.51 275.82 20.40 279.77 31.12 C 283.59 41.25 283.22 52.85 278.82 62.74 C 278.62 63.15 278.23 63.97 278.04 64.38 C 275.79 68.93 272.59 72.91 269.04 76.52 C 263.36 74.47 257.67 72.35 251.76 71.08 C 249.60 70.27 248.19 68.57 248.37 66.20 C 248.35 65.33 248.31 63.58 248.29 62.71 C 251.24 60.49 254.24 57.98 255.35 54.30 C 256.47 50.70 260.62 48.90 261.05 44.97 C 261.79 42.53 260.56 40.07 258.09 39.39 C 258.51 33.25 259.00 25.88 253.61 21.63 C 253.34 21.36 252.81 20.82 252.55 20.55 C 250.58 17.17 248.05 14.07 244.47 12.32 C 242.71 14.56 241.25 17.76 238.01 17.96 C 233.93 18.70 229.70 19.76 226.75 22.87 C 225.45 24.27 224.40 25.88 223.64 27.63 C 222.99 31.42 222.95 35.28 223.21 39.11 C 221.81 40.06 219.96 41.00 220.14 43.00 C 219.60 48.00 224.76 50.64 225.98 55.06 C 227.09 58.57 230.21 60.72 233.03 62.79 C 233.04 63.67 233.04 65.42 233.04 66.29 C 232.85 68.28 231.65 69.86 230.44 71.36 C 228.42 70.86 226.46 71.73 224.58 72.32 C 220.48 73.75 216.27 74.84 212.27 76.54 C 203.02 67.71 197.76 54.76 199.09 41.95 C 200.18 28.49 208.35 15.92 220.14 9.37 Z" />
<path fill="#ffffff" opacity="1.00" d=" M 480.24 44.15 C 481.17 42.15 484.30 42.15 485.31 44.11 C 485.91 46.60 485.56 49.20 485.62 51.74 C 488.75 51.88 491.95 51.40 495.03 52.07 C 497.15 53.37 496.48 56.32 494.47 57.32 C 495.50 59.14 494.83 61.05 493.20 62.22 C 494.21 63.90 493.69 65.71 492.20 66.89 C 492.53 68.22 492.60 70.16 490.98 70.62 C 486.65 70.91 482.30 70.71 477.97 70.74 C 476.09 70.87 473.95 70.08 473.42 68.05 C 473.19 63.56 473.18 59.07 473.41 54.58 C 473.91 51.15 478.63 52.65 479.76 49.83 C 480.03 47.95 479.78 46.01 480.24 44.15 Z" />
<path fill="#ffffff" opacity="1.00" d=" M 236.00 54.44 C 239.03 54.34 242.07 54.32 245.11 54.40 C 243.53 58.36 237.84 58.03 236.00 54.44 Z" />
<path fill="#ffffff" opacity="1.00" d=" M 495.78 95.60 C 507.88 89.72 523.25 91.60 533.56 100.27 C 543.10 107.98 547.98 120.89 546.04 132.99 C 544.91 141.16 540.59 148.64 534.64 154.27 C 530.20 152.60 525.70 151.08 521.11 149.90 C 520.14 149.60 519.21 149.22 518.30 148.79 C 517.13 147.03 517.75 144.75 517.59 142.77 C 519.70 141.08 522.33 139.52 523.03 136.70 C 523.63 133.15 527.60 131.61 528.09 128.02 C 528.74 126.06 527.65 124.24 526.10 123.12 C 525.90 118.92 526.46 114.31 523.89 110.67 C 522.83 109.09 521.93 107.40 521.12 105.69 C 519.31 102.44 516.30 100.12 513.14 98.29 C 511.82 102.50 507.31 103.56 503.95 105.61 C 501.80 107.12 499.69 108.70 497.88 110.60 C 495.73 114.42 495.95 118.86 495.93 123.09 C 494.29 124.21 493.22 126.06 493.88 128.07 C 494.56 131.44 497.97 133.33 498.75 136.71 C 499.61 139.46 502.11 141.08 504.30 142.72 C 504.15 144.70 504.80 146.95 503.72 148.75 C 502.79 149.20 501.83 149.58 500.86 149.90 C 496.25 151.09 491.73 152.63 487.26 154.26 C 480.05 147.43 475.46 137.82 475.51 127.81 C 475.52 127.38 475.53 126.51 475.54 126.08 C 476.00 113.21 484.05 100.96 495.78 95.60 Z" />
<path fill="#ffffff" opacity="1.00" d=" M 220.61 120.19 C 221.07 120.11 221.99 119.94 222.45 119.85 C 222.48 126.91 222.46 133.97 222.46 141.02 C 221.68 141.00 220.14 140.96 219.36 140.93 C 219.44 135.65 219.38 130.37 219.40 125.08 C 218.74 125.04 217.41 124.95 216.75 124.91 C 216.08 122.33 219.53 121.99 220.61 120.19 Z" />
<path fill="#ffffff" opacity="1.00" d=" M 229.17 120.14 C 231.86 119.32 235.22 121.10 235.48 124.03 C 235.70 128.31 235.65 132.62 235.52 136.90 C 235.26 140.30 230.67 142.29 227.99 140.19 C 224.92 138.19 226.07 134.08 225.86 131.02 C 226.03 127.27 224.67 121.88 229.17 120.14 M 228.87 124.01 C 228.60 128.06 228.70 132.15 228.80 136.21 C 228.58 138.16 231.56 138.70 232.33 136.98 C 232.54 132.61 232.28 128.22 232.45 123.84 C 231.33 123.02 229.68 122.46 228.87 124.01 Z" />
<path fill="#ffffff" opacity="1.00" d=" M 238.60 120.00 C 241.60 119.99 244.60 119.99 247.61 120.02 C 247.61 120.76 247.61 122.24 247.61 122.98 C 245.66 122.99 243.70 123.00 241.76 123.01 C 241.73 124.49 241.70 125.97 241.66 127.45 C 243.05 127.19 244.46 126.99 245.89 126.87 C 248.62 129.15 247.79 133.00 247.85 136.13 C 248.03 139.46 244.16 142.13 241.12 140.67 C 239.22 140.01 238.66 137.95 238.02 136.27 C 238.75 136.05 240.22 135.61 240.95 135.39 C 241.41 136.93 242.01 138.59 243.98 138.02 C 245.36 135.68 244.65 132.73 244.61 130.15 C 243.57 128.37 241.37 129.89 241.49 131.55 C 240.77 131.52 239.32 131.46 238.59 131.43 C 238.61 127.62 238.60 123.81 238.60 120.00 Z" />
<path fill="#ffffff" opacity="1.00" d=" M 29.54 132.46 C 37.80 126.80 48.26 124.54 58.12 126.18 C 67.89 127.72 76.95 133.16 82.98 140.99 C 89.07 148.71 91.90 158.78 91.12 168.55 L 90.97 169.98 C 89.81 179.90 84.61 189.05 77.14 195.58 C 72.09 193.99 67.08 192.31 62.04 190.70 C 61.25 189.15 60.47 187.59 59.79 186.00 L 59.77 185.20 L 59.96 183.95 C 61.55 184.57 63.15 185.20 64.74 185.83 C 64.62 184.38 64.49 182.93 64.36 181.48 C 66.56 182.78 69.01 183.48 71.54 183.80 C 68.42 179.97 68.13 174.68 69.79 170.18 C 72.38 167.03 72.56 162.99 71.32 159.24 C 71.60 155.92 71.42 152.57 70.80 149.30 C 70.22 147.88 69.63 146.48 68.93 145.12 C 67.80 143.38 66.17 142.12 64.54 140.89 C 62.76 138.85 61.01 136.49 58.21 135.84 C 50.91 133.83 42.82 136.34 37.41 141.51 C 36.29 142.71 35.28 144.01 34.31 145.35 C 33.47 146.92 32.80 148.58 32.17 150.25 C 31.57 153.66 31.74 157.14 31.77 160.60 C 30.56 164.24 31.99 167.83 33.53 171.12 C 35.04 175.37 34.46 180.26 31.49 183.73 C 34.06 183.55 36.55 182.82 38.73 181.43 C 38.60 182.87 38.48 184.31 38.36 185.77 C 40.16 185.31 42.03 183.66 43.94 184.69 C 43.89 185.52 43.80 187.18 43.76 188.01 C 42.79 188.82 41.82 189.64 40.82 190.41 C 39.76 191.06 38.68 191.69 37.60 192.31 C 32.83 186.22 24.79 183.05 17.15 184.40 C 13.24 177.27 11.52 168.97 12.44 160.88 C 13.59 149.50 20.06 138.83 29.54 132.46 Z" />
<path fill="#ffffff" opacity="1.00" d=" M 389.44 134.52 C 391.53 132.12 395.97 133.76 396.03 136.92 C 396.44 139.55 393.50 141.88 391.01 140.96 C 388.32 140.23 387.35 136.41 389.44 134.52 Z" />
<path fill="#ffffff" opacity="1.00" d=" M 506.15 135.07 C 509.34 134.97 512.54 134.96 515.75 135.06 C 514.09 139.44 507.87 139.34 506.15 135.07 Z" />
<path fill="#ffffff" opacity="1.00" d=" M 328.95 172.00 C 340.34 162.35 356.26 158.55 370.81 161.78 C 371.33 161.90 372.35 162.14 372.86 162.27 C 392.95 167.31 408.47 186.28 409.22 207.01 C 410.19 221.75 403.80 236.44 392.95 246.34 C 391.05 245.37 389.10 244.48 387.07 243.82 C 382.57 242.44 378.12 240.90 373.63 239.49 C 371.64 238.87 369.29 238.41 368.65 236.11 C 368.58 233.98 368.62 231.85 368.65 229.72 C 373.06 226.88 376.53 222.78 377.52 217.51 C 381.94 214.89 384.63 209.18 382.20 204.32 C 382.99 196.95 381.81 186.95 373.65 184.23 C 372.90 183.01 372.16 181.78 371.38 180.58 C 367.19 176.00 360.42 176.44 354.86 177.53 C 350.50 178.74 345.98 180.40 342.91 183.88 C 338.51 189.02 335.47 195.46 335.10 202.28 C 336.11 201.21 337.10 200.12 338.11 199.04 C 338.16 200.61 338.21 202.18 338.32 203.76 C 334.83 207.27 336.79 212.94 340.04 215.86 C 342.96 218.12 342.65 222.31 345.06 224.93 C 346.83 226.85 348.95 228.41 351.05 229.96 C 351.07 231.31 351.08 232.67 351.08 234.03 C 351.30 237.04 349.32 239.01 346.45 239.40 C 341.79 240.80 337.20 242.39 332.54 243.81 C 330.76 244.37 329.08 245.20 327.45 246.10 C 325.89 244.57 324.38 242.97 322.94 241.33 C 322.45 240.76 321.98 240.18 321.53 239.60 C 317.58 234.55 314.79 228.68 312.97 222.55 C 314.38 221.90 315.79 221.24 317.20 220.58 C 315.48 219.76 313.76 218.95 312.02 218.19 C 308.96 201.20 315.56 182.91 328.95 172.00 Z" />
<path fill="#ffffff" opacity="1.00" d=" M 490.08 193.67 C 491.76 191.52 491.88 187.30 494.93 186.77 C 497.24 188.22 497.68 191.42 499.11 193.65 C 501.61 194.60 507.18 193.09 507.00 197.01 C 505.42 198.85 503.57 200.44 501.86 202.15 C 501.74 204.83 504.86 209.78 501.07 210.69 C 498.84 209.81 496.79 208.53 494.67 207.42 C 492.01 208.14 489.25 211.79 486.53 209.99 C 485.91 207.41 487.14 204.75 487.37 202.15 C 485.83 199.92 481.64 198.44 482.41 195.35 C 484.49 193.74 487.59 194.30 490.08 193.67 Z" />
<path fill="#ffffff" opacity="1.00" d=" M 13.76 193.10 C 19.11 196.11 24.38 199.25 29.72 202.27 C 31.29 203.18 33.03 203.92 34.18 205.37 C 27.33 209.19 20.59 213.21 13.76 217.08 C 13.74 209.09 13.74 201.10 13.76 193.10 Z" />
<path fill="#ffffff" opacity="1.00" d=" M 204.46 203.50 C 207.63 202.57 208.72 208.01 205.37 208.32 C 202.41 208.93 201.42 204.01 204.46 203.50 Z" />
<path fill="#ffffff" opacity="1.00" d=" M 285.09 208.96 C 288.40 207.95 288.72 212.95 290.19 214.96 C 292.64 215.97 297.44 214.58 297.73 218.06 C 296.24 219.83 294.51 221.39 292.87 223.01 C 292.78 225.52 295.09 228.95 292.86 230.89 C 290.37 230.67 288.33 228.90 286.09 227.91 C 283.64 228.64 280.68 232.33 278.35 229.95 C 278.44 227.60 278.96 225.30 279.34 222.99 C 277.86 220.83 273.52 219.24 274.96 216.24 C 277.24 215.66 279.59 215.38 281.92 215.05 C 282.94 213.01 283.85 210.89 285.09 208.96 Z" />
<path fill="#ffffff" opacity="1.00" d=" M 353.17 219.59 C 357.45 219.44 361.73 219.46 366.01 219.55 C 363.70 224.93 355.60 224.79 353.17 219.59 Z" />
<path fill="#ffffff" opacity="1.00" d=" M 422.07 248.89 C 421.81 243.94 426.12 239.35 431.11 239.46 C 446.36 239.42 461.62 239.42 476.87 239.46 C 480.87 239.32 484.01 242.24 485.67 245.63 C 486.20 252.78 485.87 259.97 485.92 267.14 C 486.05 271.93 481.81 276.30 477.00 276.22 C 471.45 276.34 465.91 276.19 460.36 276.26 C 458.71 279.96 457.06 283.67 455.39 287.36 C 455.12 287.98 454.57 289.21 454.30 289.82 C 453.07 287.17 451.84 284.51 450.61 281.86 C 449.74 279.99 448.86 278.12 447.99 276.25 C 441.13 275.97 434.19 276.89 427.41 275.64 C 425.45 274.35 423.65 272.74 422.69 270.55 C 422.57 270.13 422.32 269.28 422.20 268.86 C 421.91 262.21 422.10 255.54 422.07 248.89 M 441.33 256.56 C 439.86 257.51 439.64 259.87 441.01 261.01 C 442.60 262.76 445.93 261.40 445.84 259.03 C 446.07 256.76 443.12 255.14 441.33 256.56 M 452.37 256.56 C 450.64 257.62 450.76 260.49 452.57 261.42 C 454.31 262.53 456.92 261.13 456.86 259.03 C 457.10 256.77 454.16 255.13 452.37 256.56 M 464.10 256.17 C 460.71 257.21 462.29 262.72 465.73 261.73 C 469.49 260.94 467.76 254.81 464.10 256.17 Z" />
<path fill="#ffffff" opacity="1.00" d=" M 302.39 282.67 C 303.81 281.35 306.27 282.18 306.86 283.95 C 307.13 286.35 306.98 288.77 307.00 291.19 C 309.99 291.23 313.00 291.04 315.99 291.29 C 318.50 292.30 318.13 295.76 315.74 296.68 C 316.79 298.26 316.64 300.75 314.47 301.30 C 315.64 303.22 315.19 305.33 313.24 306.49 C 314.55 307.51 313.65 309.97 312.13 310.07 C 307.73 310.32 303.31 310.18 298.91 310.16 C 296.59 310.33 294.29 308.34 294.55 305.93 C 294.48 301.95 294.36 297.96 294.66 294.00 C 295.26 291.64 297.86 291.34 299.78 290.72 C 302.87 289.09 299.91 284.69 302.39 282.67 Z" />
<path fill="#ffffff" opacity="1.00" d=" M 72.13 293.75 C 92.39 288.36 115.22 297.10 126.81 314.53 L 127.46 315.56 C 130.00 319.56 132.00 323.90 133.41 328.42 C 133.52 328.85 133.75 329.70 133.86 330.12 C 137.20 342.76 135.47 356.66 129.02 368.04 C 128.78 368.45 128.30 369.26 128.07 369.67 C 125.83 373.27 123.19 376.64 120.11 379.57 C 119.23 380.36 118.36 381.17 117.47 381.95 C 114.70 379.21 111.09 377.73 107.42 376.63 C 102.65 375.03 97.74 373.83 93.08 371.91 C 92.65 369.37 92.27 366.81 92.13 364.23 C 92.10 363.45 92.02 361.90 91.98 361.12 C 95.09 359.73 98.19 358.09 100.54 355.57 C 102.58 353.34 103.28 350.31 104.34 347.56 C 107.77 345.58 110.89 342.25 110.72 338.02 C 110.77 335.82 108.72 334.57 107.48 333.06 C 110.02 327.96 110.11 322.09 108.88 316.62 C 108.30 314.72 107.46 312.91 106.45 311.21 C 103.06 306.59 97.97 303.50 92.49 302.02 C 87.03 300.38 80.96 302.01 77.12 306.22 C 73.71 305.59 69.93 305.85 67.23 308.28 C 61.91 312.78 58.20 320.38 61.12 327.25 C 61.70 329.26 62.29 331.27 62.92 333.27 C 61.54 334.41 59.43 335.28 59.30 337.34 C 58.80 340.64 60.72 343.70 63.09 345.82 C 66.16 348.23 66.01 352.62 68.58 355.39 C 70.88 357.95 73.98 359.60 77.04 361.06 C 77.05 361.86 77.08 363.45 77.09 364.25 C 76.79 367.19 77.65 371.94 73.86 372.84 C 69.07 374.62 64.03 375.63 59.24 377.42 C 56.86 378.71 52.32 379.53 52.55 382.90 C 47.63 378.29 42.95 373.29 39.82 367.25 C 31.99 352.93 31.73 334.81 39.14 320.27 C 45.38 307.75 56.99 298.07 70.44 294.22 C 70.86 294.10 71.71 293.87 72.13 293.75 Z" />
<path fill="#ffffff" opacity="1.00" d=" M 288.59 295.63 C 289.50 293.23 292.88 295.59 291.30 297.26 C 290.35 298.83 287.77 297.26 288.59 295.63 Z" />
<path fill="#ffffff" opacity="1.00" d=" M 395.99 303.42 C 418.82 291.51 448.83 296.16 466.90 314.54 C 467.37 315.00 467.83 315.47 468.29 315.96 C 470.31 318.09 472.15 320.40 473.92 322.75 C 468.70 335.58 473.53 351.51 485.15 359.10 C 485.12 377.16 476.36 394.69 462.45 406.10 C 459.32 403.59 455.68 401.80 451.80 400.80 C 452.26 397.27 452.74 393.75 453.12 390.22 C 453.41 387.37 453.65 384.52 453.91 381.68 C 454.19 378.50 454.40 375.31 454.62 372.13 C 455.03 357.69 457.98 342.45 452.18 328.68 C 448.31 318.78 438.48 311.83 427.99 310.86 C 421.44 310.33 414.58 310.62 408.61 313.63 C 401.22 316.95 395.72 323.66 393.28 331.32 C 388.72 344.51 391.91 358.58 392.95 372.08 C 393.25 374.80 393.55 377.53 393.92 380.26 C 394.34 383.38 394.74 386.51 395.19 389.64 C 395.73 393.23 396.35 396.82 397.04 400.39 C 392.85 401.67 388.17 402.74 385.41 406.47 C 375.35 398.13 367.60 386.83 364.34 374.11 C 360.51 359.74 362.07 343.98 368.80 330.71 C 374.32 319.65 383.28 310.39 394.09 304.42 C 394.56 304.17 395.51 303.67 395.99 303.42 Z" />
<path fill="#ffffff" opacity="1.00" d=" M 483.30 321.15 C 496.06 321.05 508.82 321.07 521.58 321.14 L 520.99 321.58 C 517.75 323.95 514.60 326.43 511.43 328.89 C 508.37 331.26 505.34 333.67 502.18 335.91 C 499.12 333.63 496.12 331.28 493.11 328.93 C 489.81 326.37 486.44 323.90 483.30 321.15 Z" />
<path fill="#ffffff" opacity="1.00" d=" M 208.80 339.56 C 211.40 335.04 213.95 330.48 216.65 326.03 C 219.18 330.56 221.88 335.01 224.38 339.56 C 222.74 339.56 221.10 339.56 219.46 339.56 C 219.45 341.00 219.43 342.44 219.42 343.88 C 217.53 343.87 215.65 343.87 213.76 343.88 C 213.75 342.43 213.74 341.00 213.74 339.56 C 212.09 339.56 210.44 339.56 208.80 339.56 Z" />
<path fill="#ffffff" opacity="1.00" d=" M 151.16 344.23 C 153.15 342.94 156.06 344.60 156.02 346.94 C 156.17 349.34 153.25 351.08 151.20 349.82 C 149.07 348.73 149.06 345.34 151.16 344.23 Z" />
<path fill="#ffffff" opacity="1.00" d=" M 395.75 356.02 C 396.01 354.04 398.19 353.90 399.75 354.18 C 400.68 357.54 398.26 360.55 398.66 363.97 C 398.33 362.46 398.11 360.94 397.92 359.42 C 396.94 358.51 395.22 357.67 395.75 356.02 Z" />
<path fill="#ffffff" opacity="1.00" d=" M 447.96 353.76 C 449.96 353.88 451.58 354.86 452.12 356.87 C 451.22 357.81 450.33 358.77 449.45 359.74 C 449.60 360.71 449.89 362.65 450.04 363.62 C 449.93 366.29 449.69 368.96 449.38 371.62 C 448.89 374.73 448.08 377.80 446.99 380.76 C 445.80 383.86 444.26 386.82 442.45 389.60 C 440.87 391.93 439.04 394.07 437.04 396.05 C 433.74 399.00 430.78 402.30 427.56 405.34 C 429.54 401.63 432.84 398.96 435.87 396.15 C 441.34 391.13 445.16 384.51 447.32 377.45 C 448.61 373.07 449.06 368.50 449.26 363.96 C 449.57 360.39 446.30 357.28 447.96 353.76 Z" />
<path fill="#ffffff" opacity="1.00" d=" M 415.72 369.78 C 421.03 369.63 426.34 369.67 431.66 369.75 C 428.22 375.50 419.23 375.38 415.72 369.78 Z" />
<path fill="#ffffff" opacity="1.00" d=" M 117.43 388.47 C 120.86 385.26 124.14 381.86 127.99 379.14 C 134.48 380.29 140.43 384.35 143.58 390.18 C 147.59 397.29 147.08 406.65 142.29 413.26 C 138.22 419.12 131.13 422.70 123.99 422.45 C 116.71 422.36 109.69 418.28 105.93 412.06 C 102.97 407.32 102.12 401.45 103.22 396.00 C 103.29 395.74 103.42 395.23 103.49 394.98 C 105.60 394.33 107.72 393.68 109.85 393.04 C 110.14 394.38 110.43 395.73 110.75 397.07 C 112.46 404.25 118.73 408.94 124.44 412.99 C 129.82 409.40 135.38 405.10 137.76 398.86 C 139.01 395.46 138.91 390.23 134.90 388.79 C 130.55 387.42 126.95 390.98 124.46 394.06 C 122.62 391.63 120.38 389.46 117.43 388.47 Z" />
<path fill="#ffffff" opacity="1.00" d=" M 412.66 397.58 C 414.49 398.73 416.12 400.15 417.85 401.46 C 417.92 402.01 418.05 403.11 418.12 403.66 C 416.28 401.65 414.36 399.71 412.66 397.58 Z" />
<path fill="#ffffff" opacity="1.00" d=" M 418.64 405.06 C 419.11 404.57 419.57 404.07 420.03 403.57 C 420.64 405.29 421.70 406.79 422.91 408.15 C 423.06 408.70 423.35 409.80 423.49 410.35 C 421.91 408.55 420.45 406.63 418.64 405.06 Z" />
<path fill="#ffffff" opacity="1.00" d=" M 186.34 408.51 C 191.62 406.50 198.00 410.26 198.82 415.84 C 199.99 421.23 195.57 426.88 190.07 427.06 C 184.90 427.56 179.97 423.13 179.90 417.95 C 179.64 413.82 182.41 409.78 186.34 408.51 Z" />
<path fill="#ffffff" opacity="1.00" d=" M 287.33 410.49 C 291.60 407.73 298.33 410.64 298.34 415.98 C 299.34 420.18 296.82 423.74 294.86 427.16 C 293.83 428.56 294.82 430.17 296.22 430.76 C 299.61 432.54 303.73 432.77 306.78 435.18 C 308.63 436.68 308.42 439.24 308.18 441.36 C 296.83 441.36 285.49 441.44 274.14 441.32 C 274.11 439.51 273.71 437.49 274.92 435.96 C 278.18 431.89 284.92 433.22 287.95 428.99 C 287.69 425.67 284.51 423.41 284.07 420.12 C 283.64 416.70 283.91 412.32 287.33 410.49 Z" />
</g>
<g id="#fff1ceff">
<path fill="#fff1ce" opacity="1.00" d=" M 244.47 12.32 C 248.05 14.07 250.58 17.17 252.55 20.55 C 249.72 20.94 246.91 21.37 244.06 21.46 C 238.25 21.51 232.56 22.90 226.75 22.87 C 229.70 19.76 233.93 18.70 238.01 17.96 C 241.25 17.76 242.71 14.56 244.47 12.32 Z" />
</g>
<g id="#fbe199ff">
<path fill="#fbe199" opacity="1.00" d=" M 226.75 22.87 C 232.56 22.90 238.25 21.51 244.06 21.46 C 246.91 21.37 249.72 20.94 252.55 20.55 C 252.81 20.82 253.34 21.36 253.61 21.63 C 252.85 23.52 252.08 25.41 251.31 27.30 C 245.68 28.85 239.78 28.67 233.99 28.56 C 232.39 28.56 231.28 27.24 230.04 26.43 C 227.89 26.78 225.76 27.19 223.64 27.63 C 224.40 25.88 225.45 24.27 226.75 22.87 Z" />
</g>
<g id="#f7d060ff">
<path fill="#f7d060" opacity="1.00" d=" M 253.61 21.63 C 259.00 25.88 258.51 33.25 258.09 39.39 C 257.85 40.11 257.37 41.54 257.14 42.26 C 256.46 37.68 256.01 33.01 254.14 28.72 C 250.14 29.88 246.12 31.15 241.94 31.34 C 236.86 31.74 232.03 29.87 227.15 28.82 C 225.40 33.08 224.83 37.65 224.48 42.20 C 224.04 41.18 223.61 40.15 223.21 39.11 C 222.95 35.28 222.99 31.42 223.64 27.63 C 225.76 27.19 227.89 26.78 230.04 26.43 C 231.28 27.24 232.39 28.56 233.99 28.56 C 239.78 28.67 245.68 28.85 251.31 27.30 C 252.08 25.41 252.85 23.52 253.61 21.63 Z" />
</g>
<g id="#f8d4b4ff">
<path fill="#f8d4b4" opacity="1.00" d=" M 227.15 28.82 C 232.03 29.87 236.86 31.74 241.94 31.34 C 246.12 31.15 250.14 29.88 254.14 28.72 C 256.01 33.01 256.46 37.68 257.14 42.26 C 257.37 41.54 257.85 40.11 258.09 39.39 C 260.56 40.07 261.79 42.53 261.05 44.97 C 260.62 48.90 256.47 50.70 255.35 54.30 C 254.24 57.98 251.24 60.49 248.29 62.71 C 245.76 64.20 243.06 65.91 240.00 65.79 C 237.41 65.61 235.17 64.12 233.03 62.79 C 230.21 60.72 227.09 58.57 225.98 55.06 C 224.76 50.64 219.60 48.00 220.14 43.00 C 219.96 41.00 221.81 40.06 223.21 39.11 C 223.61 40.15 224.04 41.18 224.48 42.20 C 224.83 37.65 225.40 33.08 227.15 28.82 M 230.39 39.54 C 228.42 40.72 229.53 44.85 231.98 44.01 C 235.27 43.58 233.41 37.44 230.39 39.54 M 248.24 39.28 C 245.63 40.44 247.14 45.36 250.06 43.92 C 252.42 42.62 251.00 38.25 248.24 39.28 M 236.00 54.44 C 237.84 58.03 243.53 58.36 245.11 54.40 C 242.07 54.32 239.03 54.34 236.00 54.44 Z" />
<path fill="#f8d4b4" opacity="1.00" d=" M 233.04 66.29 C 235.61 67.25 238.21 68.57 241.03 68.39 C 243.58 68.09 245.97 67.07 248.37 66.20 C 248.19 68.57 249.60 70.27 251.76 71.08 C 244.96 73.65 237.30 73.79 230.44 71.36 C 231.65 69.86 232.85 68.28 233.04 66.29 Z" />
<path fill="#f8d4b4" opacity="1.00" d=" M 69.88 320.63 C 72.14 319.71 74.28 318.52 76.27 317.11 C 78.72 321.30 82.55 324.56 87.14 326.17 C 89.47 326.85 91.88 327.11 94.29 327.34 C 93.46 325.68 92.62 324.03 91.79 322.38 C 93.40 323.42 95.01 324.46 96.61 325.52 C 99.32 327.04 101.17 329.51 102.84 332.06 C 103.29 332.21 104.20 332.51 104.65 332.66 C 104.32 335.04 103.99 337.42 103.69 339.81 C 105.06 337.62 106.41 335.42 107.48 333.06 C 108.72 334.57 110.77 335.82 110.72 338.02 C 110.89 342.25 107.77 345.58 104.34 347.56 C 103.28 350.31 102.58 353.34 100.54 355.57 C 98.19 358.09 95.09 359.73 91.98 361.12 C 87.24 363.58 81.78 363.48 77.04 361.06 C 73.98 359.60 70.88 357.95 68.58 355.39 C 66.01 352.62 66.16 348.23 63.09 345.82 C 60.72 343.70 58.80 340.64 59.30 337.34 C 59.43 335.28 61.54 334.41 62.92 333.27 C 63.51 335.05 64.12 336.83 64.73 338.62 C 64.90 334.11 64.78 329.50 66.22 325.18 C 67.12 323.42 68.46 321.97 69.88 320.63 M 73.05 333.08 C 72.19 333.93 71.25 334.69 70.25 335.37 C 71.15 337.27 72.17 340.86 74.98 339.59 C 78.35 338.23 76.88 332.21 73.05 333.08 M 95.16 333.13 C 92.01 334.30 92.56 339.79 96.08 339.91 C 98.36 339.58 98.76 337.03 99.73 335.37 C 98.29 334.48 97.07 332.72 95.16 333.13 M 70.43 341.47 C 67.82 341.82 66.81 345.55 68.95 347.11 C 70.70 348.67 74.00 347.54 74.11 345.10 C 74.66 343.05 72.38 341.02 70.43 341.47 M 98.39 341.45 C 94.14 342.12 95.67 349.00 99.81 347.74 C 103.67 346.86 102.22 340.62 98.39 341.45 M 78.37 350.70 C 80.82 355.81 89.19 355.87 91.56 350.67 C 87.25 349.71 82.69 349.78 78.37 350.70 Z" />
<path fill="#f8d4b4" opacity="1.00" d=" M 77.09 364.25 C 82.04 365.48 87.19 365.46 92.13 364.23 C 92.27 366.81 92.65 369.37 93.08 371.91 C 97.74 373.83 102.65 375.03 107.42 376.63 C 105.33 380.43 102.49 384.12 98.13 385.39 C 93.23 386.89 88.45 389.04 84.96 392.94 C 83.04 391.17 81.12 389.31 78.76 388.13 C 74.98 386.16 70.49 385.62 67.14 382.83 C 65.00 381.21 63.88 378.70 62.70 376.38 C 62.17 376.59 61.10 377.02 60.57 377.24 C 60.42 380.86 60.60 384.49 60.24 388.11 C 60.04 388.00 59.63 387.78 59.43 387.66 C 60.94 384.59 60.32 381.06 60.25 377.78 L 59.24 377.42 C 64.03 375.63 69.07 374.62 73.86 372.84 C 77.65 371.94 76.79 367.19 77.09 364.25 Z" />
</g>
<g id="#42428eff">
<path fill="#42428e" opacity="1.00" d=" M 446.36 44.96 C 446.32 40.94 449.90 37.36 453.92 37.42 C 468.97 37.31 484.02 37.41 499.07 37.37 C 502.12 37.16 505.35 38.51 506.84 41.28 C 508.10 43.31 507.83 45.79 507.89 48.06 C 507.82 55.74 507.94 63.43 507.85 71.11 C 507.98 74.89 504.93 78.48 501.14 78.83 C 494.87 79.18 488.58 78.69 482.31 79.08 C 480.80 82.89 479.02 86.58 477.38 90.33 C 475.54 86.56 473.83 82.73 472.03 78.94 C 465.99 78.89 459.94 79.03 453.90 78.89 C 449.75 78.95 446.17 75.15 446.34 71.04 C 446.30 62.34 446.26 53.65 446.36 44.96 M 480.24 44.15 C 479.78 46.01 480.03 47.95 479.76 49.83 C 478.63 52.65 473.91 51.15 473.41 54.58 C 472.78 51.09 468.69 51.29 466.01 51.83 C 463.61 52.95 464.36 55.90 464.23 58.00 C 464.46 62.19 463.83 66.47 464.55 70.60 C 466.74 73.79 474.01 72.87 473.42 68.05 C 473.95 70.08 476.09 70.87 477.97 70.74 C 482.30 70.71 486.65 70.91 490.98 70.62 C 492.60 70.16 492.53 68.22 492.20 66.89 C 493.69 65.71 494.21 63.90 493.20 62.22 C 494.83 61.05 495.50 59.14 494.47 57.32 C 496.48 56.32 497.15 53.37 495.03 52.07 C 491.95 51.40 488.75 51.88 485.62 51.74 C 485.56 49.20 485.91 46.60 485.31 44.11 C 484.30 42.15 481.17 42.15 480.24 44.15 Z" />
<path fill="#42428e" opacity="1.00" d=" M 332.54 243.81 C 337.20 242.39 341.79 240.80 346.45 239.40 C 350.10 243.09 354.60 246.77 360.05 246.86 C 365.50 246.57 369.42 242.41 373.63 239.49 C 378.12 240.90 382.57 242.44 387.07 243.82 C 387.06 246.22 387.06 248.61 387.07 251.01 C 384.96 252.43 382.71 253.63 380.41 254.69 C 379.72 254.99 379.03 255.28 378.34 255.57 C 376.61 256.23 374.84 256.75 373.05 257.15 C 371.73 256.37 369.54 256.33 369.06 258.11 L 368.49 258.11 C 363.11 258.18 357.74 258.16 352.36 258.24 L 351.89 258.25 C 351.39 256.46 349.24 256.50 347.84 257.04 L 347.06 256.94 C 346.47 256.77 345.29 256.44 344.70 256.27 C 340.34 255.09 336.33 252.91 332.60 250.40 C 332.58 248.20 332.56 246.01 332.54 243.81 Z" />
<path fill="#42428e" opacity="1.00" d=" M 287.26 291.36 C 289.51 290.79 293.30 290.23 294.33 293.01 C 294.37 298.03 294.09 303.05 294.48 308.06 C 295.07 312.54 287.86 312.97 285.89 310.04 C 285.28 305.73 285.79 301.33 285.61 296.99 C 285.73 295.07 285.07 292.36 287.26 291.36 M 288.59 295.63 C 287.77 297.26 290.35 298.83 291.30 297.26 C 292.88 295.59 289.50 293.23 288.59 295.63 Z" />
<path fill="#42428e" opacity="1.00" d=" M 193.25 329.03 C 193.77 322.08 198.88 315.68 205.80 314.25 C 212.24 312.67 219.12 315.69 222.84 321.05 C 225.94 319.65 229.72 319.30 232.66 321.26 C 235.18 322.68 236.39 325.43 237.10 328.10 C 242.17 329.28 246.51 333.64 246.69 339.00 C 247.31 345.49 241.58 351.67 235.04 351.43 C 222.71 351.44 210.39 351.46 198.06 351.42 C 191.58 351.60 185.91 345.47 186.52 339.03 C 186.67 334.70 189.57 331.05 193.25 329.03 M 208.80 339.56 C 210.44 339.56 212.09 339.56 213.74 339.56 C 213.74 341.00 213.75 342.43 213.76 343.88 C 215.65 343.87 217.53 343.87 219.42 343.88 C 219.43 342.44 219.45 341.00 219.46 339.56 C 221.10 339.56 222.74 339.56 224.38 339.56 C 221.88 335.01 219.18 330.56 216.65 326.03 C 213.95 330.48 211.40 335.04 208.80 339.56 Z" />
</g>
<g id="#332013ff">
<path fill="#332013" opacity="1.00" d=" M 230.39 39.54 C 233.41 37.44 235.27 43.58 231.98 44.01 C 229.53 44.85 228.42 40.72 230.39 39.54 Z" />
<path fill="#332013" opacity="1.00" d=" M 248.24 39.28 C 251.00 38.25 252.42 42.62 250.06 43.92 C 247.14 45.36 245.63 40.44 248.24 39.28 Z" />
<path fill="#332013" opacity="1.00" d=" M 42.46 159.63 C 45.12 158.85 46.77 163.16 43.97 164.03 C 41.19 165.72 38.74 159.59 42.46 159.63 Z" />
<path fill="#332013" opacity="1.00" d=" M 58.58 160.39 C 59.66 159.06 61.42 159.86 62.79 160.08 C 62.90 161.63 62.70 163.60 60.96 164.21 C 58.86 164.91 56.79 161.90 58.58 160.39 Z" />
<path fill="#332013" opacity="1.00" d=" M 346.66 205.83 C 347.65 204.72 348.70 203.67 349.80 202.68 C 351.73 203.99 353.00 206.94 350.63 208.54 C 348.57 209.67 347.23 207.49 346.66 205.83 Z" />
<path fill="#332013" opacity="1.00" d=" M 368.38 203.40 C 371.85 201.73 373.38 208.17 369.81 208.79 C 366.84 209.29 365.78 204.56 368.38 203.40 Z" />
<path fill="#332013" opacity="1.00" d=" M 73.05 333.08 C 76.88 332.21 78.35 338.23 74.98 339.59 C 72.17 340.86 71.15 337.27 70.25 335.37 C 71.25 334.69 72.19 333.93 73.05 333.08 Z" />
<path fill="#332013" opacity="1.00" d=" M 95.16 333.13 C 97.07 332.72 98.29 334.48 99.73 335.37 C 98.76 337.03 98.36 339.58 96.08 339.91 C 92.56 339.79 92.01 334.30 95.16 333.13 Z" />
<path fill="#332013" opacity="1.00" d=" M 406.72 350.33 C 407.92 349.19 409.48 347.71 411.27 348.58 C 414.74 350.06 413.97 356.42 409.99 356.44 C 406.61 356.37 407.07 352.18 405.12 350.37 C 405.52 350.36 406.32 350.34 406.72 350.33 Z" />
<path fill="#332013" opacity="1.00" d=" M 435.45 348.48 C 437.77 347.48 438.85 350.79 441.10 350.26 C 439.60 352.23 439.82 355.59 437.07 356.42 C 432.53 357.18 431.39 349.77 435.45 348.48 Z" />
</g>
<g id="#80808080">
<path fill="#808080" opacity="0.50" d=" M 169.15 43.17 C 173.18 41.57 178.26 44.42 178.03 48.98 C 178.33 53.86 172.46 56.74 168.45 54.45 C 164.29 52.14 164.64 44.90 169.15 43.17 Z" />
<path fill="#808080" opacity="0.50" d=" M 96.23 90.34 C 98.96 89.12 102.68 90.25 103.65 93.25 C 105.17 96.79 101.89 101.14 98.01 100.25 C 92.83 100.44 91.77 92.21 96.23 90.34 Z" />
<path fill="#808080" opacity="0.50" d=" M 548.30 204.17 C 550.71 203.01 553.68 203.75 555.00 206.13 L 555.00 209.25 C 553.98 211.05 552.15 212.56 549.95 212.00 C 546.23 211.72 545.42 206.05 548.30 204.17 Z" />
<path fill="#808080" opacity="0.50" d=" M 223.19 249.26 C 224.89 248.40 227.66 248.39 228.61 250.36 C 230.10 252.77 227.94 256.19 225.06 255.57 C 221.78 255.72 220.85 251.01 223.19 249.26 Z" />
<path fill="#808080" opacity="0.50" d=" M 23.42 252.48 C 26.28 251.23 29.82 253.87 28.99 257.02 C 28.70 260.56 23.24 261.37 21.52 258.52 C 20.24 256.52 20.96 253.20 23.42 252.48 Z" />
<path fill="#808080" opacity="0.50" d=" M 237.15 291.35 C 240.74 289.82 244.98 293.37 244.00 297.19 C 243.56 301.53 237.02 302.66 234.74 299.20 C 232.95 296.59 233.98 292.35 237.15 291.35 Z" />
</g>
<g id="#acebc0ff">
<path fill="#acebc0" opacity="1.00" d=" M 464.23 58.00 C 464.36 55.90 463.61 52.95 466.01 51.83 C 468.69 51.29 472.78 51.09 473.41 54.58 C 473.18 59.07 473.19 63.56 473.42 68.05 C 474.01 72.87 466.74 73.79 464.55 70.60 C 463.83 66.47 464.46 62.19 464.23 58.00 M 468.28 55.26 C 466.12 55.48 466.82 59.23 468.97 58.37 C 471.33 58.87 470.34 54.12 468.28 55.26 Z" />
</g>
<g id="#f1fcf4ff">
<path fill="#f1fcf4" opacity="1.00" d=" M 468.28 55.26 C 470.34 54.12 471.33 58.87 468.97 58.37 C 466.82 59.23 466.12 55.48 468.28 55.26 Z" />
</g>
<g id="#f2b98dff">
<path fill="#f2b98d" opacity="1.00" d=" M 233.03 62.79 C 235.17 64.12 237.41 65.61 240.00 65.79 C 243.06 65.91 245.76 64.20 248.29 62.71 C 248.31 63.58 248.35 65.33 248.37 66.20 C 245.97 67.07 243.58 68.09 241.03 68.39 C 238.21 68.57 235.61 67.25 233.04 66.29 C 233.04 65.42 233.04 63.67 233.03 62.79 Z" />
</g>
<g id="#091e2033">
<path fill="#091e20" opacity="0.20" d=" M 278.82 62.74 C 280.04 63.29 281.27 63.84 282.49 64.42 C 311.96 79.08 341.43 93.78 370.99 108.28 C 372.64 107.70 374.28 107.06 376.01 106.74 C 378.95 106.53 380.05 109.60 381.42 111.58 C 411.38 116.43 441.42 120.76 471.39 125.56 C 472.77 125.75 474.15 125.90 475.54 126.08 C 475.53 126.51 475.52 127.38 475.51 127.81 C 474.36 127.58 473.22 127.36 472.09 127.14 C 441.77 122.39 411.44 117.74 381.10 113.15 C 379.46 114.50 377.83 115.86 376.21 117.23 C 375.44 130.25 374.39 143.26 373.43 156.27 C 373.25 158.27 373.05 160.27 372.86 162.27 C 372.35 162.14 371.33 161.90 370.81 161.78 C 371.13 160.03 371.49 158.29 371.73 156.53 C 372.40 145.00 373.30 133.50 374.19 121.99 C 374.30 119.61 374.79 116.94 373.01 115.03 C 346.54 135.46 320.39 156.31 294.00 176.85 C 292.49 178.03 290.88 179.11 289.59 180.54 C 288.97 182.38 288.84 184.34 288.23 186.18 C 286.90 187.65 284.74 187.99 283.27 189.30 C 281.79 192.13 281.12 195.29 279.92 198.24 C 279.44 198.24 278.48 198.25 278.00 198.25 C 279.37 194.72 280.65 191.14 281.46 187.44 C 276.68 190.52 272.39 194.30 268.36 198.28 L 269.99 198.32 C 268.49 199.19 267.07 200.17 265.70 201.22 C 264.12 201.61 262.75 202.48 261.55 203.56 C 218.30 240.11 174.70 276.26 131.53 312.90 C 130.22 313.87 128.84 314.70 127.46 315.56 L 126.81 314.53 C 127.96 313.39 129.17 312.30 130.40 311.25 C 180.28 269.46 230.18 227.69 279.90 185.72 C 279.69 185.32 279.28 184.50 279.07 184.10 C 217.93 179.31 156.74 175.10 95.59 170.45 C 94.05 170.31 92.50 170.14 90.97 169.98 L 91.12 168.55 C 92.61 168.61 94.10 168.69 95.59 168.77 C 156.76 173.03 217.90 177.83 279.07 182.12 C 279.95 181.03 280.86 179.97 281.75 178.89 C 272.80 148.87 263.70 118.88 254.54 88.92 C 254.30 88.13 253.80 86.57 253.55 85.78 C 254.02 85.62 254.96 85.29 255.42 85.13 C 255.79 86.40 256.15 87.68 256.52 88.95 C 265.57 118.76 274.42 148.63 283.67 178.37 C 285.00 178.77 286.34 179.16 287.68 179.57 C 315.47 157.66 343.38 135.92 371.16 113.99 C 371.08 112.68 371.01 111.37 370.95 110.05 C 341.23 95.15 311.42 80.42 281.58 65.77 C 280.40 65.30 279.22 64.83 278.04 64.38 C 278.23 63.97 278.62 63.15 278.82 62.74 Z" />
<path fill="#091e20" opacity="0.20" d=" M 484.56 156.25 C 485.56 155.66 486.59 155.13 487.65 154.65 L 488.46 155.33 C 487.63 156.10 486.79 156.86 485.96 157.62 C 471.36 170.41 456.57 183.01 442.08 195.93 C 442.09 197.58 442.11 199.23 442.12 200.88 C 459.58 213.55 477.42 225.71 495.02 238.19 C 506.98 246.43 518.66 255.10 530.78 263.10 C 531.24 262.77 532.16 262.11 532.63 261.77 C 527.75 229.83 522.68 197.92 517.68 166.00 C 517.50 164.95 517.33 163.90 517.16 162.86 C 517.52 162.79 518.25 162.65 518.61 162.58 C 518.89 164.39 519.19 166.20 519.48 168.02 C 524.54 199.08 528.92 230.26 534.31 261.25 C 537.27 262.43 540.36 265.21 538.62 268.70 C 537.14 272.21 533.03 271.49 530.17 270.49 C 510.99 284.40 491.83 298.35 472.73 312.37 C 471.23 313.54 469.75 314.75 468.29 315.96 C 467.83 315.47 467.37 315.00 466.90 314.54 C 468.48 313.43 470.06 312.31 471.65 311.20 C 487.45 299.82 503.14 288.28 518.89 276.83 C 522.74 273.91 526.95 271.41 530.30 267.89 C 527.21 267.56 524.10 267.49 521.00 267.65 C 510.91 268.07 500.81 268.02 490.73 268.60 C 490.73 268.20 490.72 267.41 490.72 267.01 C 503.48 266.68 516.25 266.41 529.01 265.97 C 529.21 265.59 529.62 264.84 529.82 264.46 C 500.32 243.80 470.95 222.94 441.35 202.44 C 439.91 202.82 438.50 203.31 437.02 203.45 C 434.79 203.06 432.97 200.63 430.59 201.44 C 425.03 202.94 419.53 204.70 414.01 206.34 C 412.68 206.70 411.30 206.96 409.92 206.84 C 410.88 205.21 413.03 205.19 414.63 204.55 C 420.32 202.88 426.05 201.31 431.70 199.51 C 432.61 197.84 433.31 196.00 434.65 194.63 C 436.47 193.39 438.78 194.30 440.81 194.36 C 455.50 181.79 470.13 169.12 484.56 156.25 Z" />
<path fill="#091e20" opacity="0.20" d=" M 56.95 204.73 L 58.03 204.47 C 58.28 205.63 58.52 206.79 58.75 207.95 C 62.91 234.96 67.05 261.98 71.29 288.97 C 71.56 290.57 71.85 292.15 72.13 293.75 C 71.71 293.87 70.86 294.10 70.44 294.22 C 70.15 291.77 69.84 289.33 69.48 286.90 C 65.35 260.60 61.35 234.28 57.24 207.98 C 57.17 207.17 57.03 205.54 56.95 204.73 Z" />
<path fill="#091e20" opacity="0.20" d=" M 264.39 237.69 C 264.78 238.50 265.18 239.30 265.63 240.09 C 262.76 246.97 260.64 254.14 258.05 261.13 C 257.18 263.67 256.01 266.20 255.94 268.94 C 257.11 269.98 258.46 269.08 259.64 268.62 C 278.78 259.58 298.00 250.72 317.15 241.71 C 318.61 241.01 320.06 240.30 321.53 239.60 C 321.98 240.18 322.45 240.76 322.94 241.33 C 321.55 241.89 320.16 242.46 318.78 243.05 C 298.66 252.36 278.50 261.64 258.51 271.23 C 257.71 273.56 256.67 275.79 255.38 277.88 C 262.80 309.12 270.37 340.32 277.98 371.51 C 277.51 371.51 276.58 371.50 276.12 371.50 C 268.64 341.02 261.34 310.49 253.99 279.98 C 253.43 276.56 248.69 275.17 245.97 276.98 C 210.07 294.05 174.10 310.98 138.19 328.06 C 136.74 328.74 135.30 329.43 133.86 330.12 C 133.75 329.70 133.52 328.85 133.41 328.42 C 134.78 327.65 136.18 326.93 137.60 326.25 C 171.74 310.23 205.78 293.98 239.89 277.89 C 242.34 276.70 244.93 275.77 247.19 274.23 C 248.28 272.60 248.69 270.60 249.85 269.02 C 251.09 268.31 252.46 267.86 253.79 267.34 C 257.71 257.60 260.70 247.52 264.39 237.69 Z" />
<path fill="#091e20" opacity="0.20" d=" M 378.34 255.57 C 379.03 255.28 379.72 254.99 380.41 254.69 C 380.80 256.14 381.18 257.60 381.60 259.05 C 382.20 261.11 382.90 263.15 383.66 265.17 C 387.10 266.15 389.10 270.38 393.00 269.62 C 402.73 269.32 412.46 269.05 422.20 268.86 C 422.32 269.28 422.57 270.13 422.69 270.55 C 414.79 270.17 406.90 270.82 399.00 270.87 C 395.86 271.02 392.65 270.70 389.59 271.46 C 388.43 273.13 386.68 275.12 387.46 277.28 C 389.58 284.18 391.86 291.02 394.08 297.88 C 394.71 299.73 395.34 301.57 395.99 303.42 C 395.51 303.67 394.56 304.17 394.09 304.42 C 393.42 302.58 392.76 300.75 392.15 298.90 C 389.72 291.40 387.37 283.87 384.69 276.45 C 382.92 275.18 380.29 274.40 379.77 272.00 C 379.14 269.65 381.04 267.70 382.02 265.75 C 381.53 263.69 381.00 261.63 380.28 259.64 C 379.67 258.26 379.00 256.91 378.34 255.57 Z" />
<path fill="#091e20" opacity="0.20" d=" M 129.02 368.04 C 130.58 368.52 132.14 369.01 133.70 369.50 C 175.16 382.20 216.70 394.60 258.18 407.22 C 258.18 407.62 258.20 408.42 258.20 408.82 C 216.35 396.06 174.47 383.39 132.56 370.83 C 131.06 370.43 129.56 370.05 128.07 369.67 C 128.30 369.26 128.78 368.45 129.02 368.04 Z" />
</g>
<g id="#ec6f76ff">
<path fill="#ec6f76" opacity="1.00" d=" M 224.58 72.32 C 226.46 71.73 228.42 70.86 230.44 71.36 C 237.30 73.79 244.96 73.65 251.76 71.08 C 257.67 72.35 263.36 74.47 269.04 76.52 C 265.30 80.47 260.42 83.12 255.42 85.13 C 254.96 85.29 254.02 85.62 253.55 85.78 C 239.50 90.45 222.89 86.96 212.27 76.54 C 216.27 74.84 220.48 73.75 224.58 72.32 Z" />
<path fill="#ec6f76" opacity="1.00" d=" M 190.34 129.78 C 189.21 126.78 189.42 122.13 193.03 121.00 C 196.74 120.00 199.88 122.94 201.84 125.73 C 203.86 122.90 207.17 119.83 210.95 121.10 C 214.30 122.34 214.41 126.69 213.44 129.58 C 211.46 135.12 206.52 138.82 201.88 142.07 C 197.24 138.90 192.40 135.20 190.34 129.78 Z" />
<path fill="#ec6f76" opacity="1.00" d=" M 17.15 184.40 C 24.79 183.05 32.83 186.22 37.60 192.31 C 39.99 195.68 41.51 199.64 41.85 203.77 C 41.83 204.65 41.78 206.42 41.76 207.30 C 41.04 213.63 37.40 219.57 31.94 222.90 C 25.22 227.18 16.03 227.07 9.40 222.65 C 4.22 219.33 0.81 213.64 0.00 207.58 L 0.00 202.58 C 0.94 194.97 6.23 188.19 13.39 185.46 C 14.63 185.05 15.88 184.70 17.15 184.40 M 13.76 193.10 C 13.74 201.10 13.74 209.09 13.76 217.08 C 20.59 213.21 27.33 209.19 34.18 205.37 C 33.03 203.92 31.29 203.18 29.72 202.27 C 24.38 199.25 19.11 196.11 13.76 193.10 Z" />
<path fill="#ec6f76" opacity="1.00" d=" M 132.17 195.31 C 132.72 193.74 133.52 192.27 134.93 191.31 C 136.45 191.96 137.57 193.14 138.52 194.45 C 139.79 194.78 141.06 195.11 142.33 195.44 C 143.81 195.01 145.48 193.73 147.00 194.75 C 148.28 195.93 147.52 197.79 147.59 199.29 C 148.22 200.41 148.86 201.53 149.51 202.65 C 150.78 203.35 152.50 203.64 153.22 205.05 C 153.76 207.04 151.64 208.05 150.46 209.16 C 150.14 210.43 149.83 211.70 149.52 212.98 C 149.95 214.50 151.37 216.38 149.98 217.83 C 148.65 218.73 147.02 218.12 145.55 218.17 C 144.43 218.84 143.32 219.53 142.22 220.21 C 141.60 221.84 140.82 223.47 139.15 224.24 C 137.87 223.36 136.74 222.30 135.79 221.08 C 134.53 220.74 133.25 220.41 131.98 220.10 C 130.46 220.57 128.68 221.84 127.18 220.64 C 126.20 219.37 126.77 217.72 126.81 216.29 C 126.11 215.09 125.40 213.89 124.68 212.71 C 123.07 212.20 121.61 211.38 120.70 209.92 C 121.43 208.54 122.43 207.34 123.79 206.55 C 124.16 205.21 124.52 203.87 124.86 202.52 C 124.40 201.08 123.16 199.44 124.15 197.95 C 125.39 196.73 127.29 197.49 128.82 197.24 C 129.98 196.68 131.07 195.99 132.17 195.31 M 134.12 199.30 C 130.89 200.43 128.52 203.54 128.23 206.94 C 127.66 211.51 131.25 216.04 135.80 216.63 C 141.35 217.75 146.81 212.54 146.15 206.96 C 145.82 201.31 139.40 197.16 134.12 199.30 Z" />
<path fill="#ec6f76" opacity="1.00" d=" M 269.99 198.32 C 272.66 198.27 275.33 198.24 278.00 198.25 C 278.48 198.25 279.44 198.24 279.92 198.24 C 285.98 198.30 292.03 198.17 298.09 198.28 C 301.81 198.17 305.35 201.18 305.69 204.92 C 306.00 208.36 305.72 211.81 305.81 215.26 C 306.10 215.43 306.66 215.76 306.95 215.92 C 308.61 216.73 310.32 217.44 312.02 218.19 C 313.76 218.95 315.48 219.76 317.20 220.58 C 315.79 221.24 314.38 221.90 312.97 222.55 C 311.53 223.22 310.09 223.88 308.65 224.55 C 307.70 224.99 306.75 225.43 305.81 225.88 C 305.69 229.87 306.16 233.92 305.47 237.88 C 304.56 241.09 301.36 243.44 298.02 243.34 C 289.34 243.41 280.65 243.41 271.97 243.33 C 269.42 243.42 267.19 241.99 265.63 240.09 C 265.18 239.30 264.78 238.50 264.39 237.69 C 264.08 229.15 264.34 220.60 264.24 212.05 C 264.31 208.41 263.73 204.51 265.70 201.22 C 267.07 200.17 268.49 199.19 269.99 198.32 M 285.09 208.96 C 283.85 210.89 282.94 213.01 281.92 215.05 C 279.59 215.38 277.24 215.66 274.96 216.24 C 273.52 219.24 277.86 220.83 279.34 222.99 C 278.96 225.30 278.44 227.60 278.35 229.95 C 280.68 232.33 283.64 228.64 286.09 227.91 C 288.33 228.90 290.37 230.67 292.86 230.89 C 295.09 228.95 292.78 225.52 292.87 223.01 C 294.51 221.39 296.24 219.83 297.73 218.06 C 297.44 214.58 292.64 215.97 290.19 214.96 C 288.72 212.95 288.40 207.95 285.09 208.96 Z" />
<path fill="#ec6f76" opacity="1.00" d=" M 135.30 204.42 C 137.76 202.85 141.31 205.09 141.01 207.97 C 140.97 210.78 137.44 212.63 135.12 211.00 C 132.71 209.61 132.81 205.67 135.30 204.42 Z" />
<path fill="#ec6f76" opacity="1.00" d=" M 112.55 389.62 C 113.85 388.38 115.78 388.62 117.43 388.47 C 120.38 389.46 122.62 391.63 124.46 394.06 C 126.95 390.98 130.55 387.42 134.90 388.79 C 138.91 390.23 139.01 395.46 137.76 398.86 C 135.38 405.10 129.82 409.40 124.44 412.99 C 118.73 408.94 112.46 404.25 110.75 397.07 C 110.69 394.54 110.40 391.43 112.55 389.62 Z" />
</g>
<g id="#33333333">
<path fill="#333333" opacity="0.20" d=" M 411.21 78.23 C 414.56 76.48 419.39 78.80 418.65 82.95 C 418.80 87.54 411.90 88.84 409.70 85.29 C 408.22 83.06 408.83 79.60 411.21 78.23 Z" />
<path fill="#333333" opacity="0.20" d=" M 146.22 141.35 C 149.74 140.11 153.88 143.25 153.10 147.06 C 153.23 150.75 148.71 152.94 145.59 151.45 C 141.27 149.83 141.66 142.39 146.22 141.35 Z" />
</g>
<g id="#8c4d21ff">
<path fill="#8c4d21" opacity="1.00" d=" M 513.14 98.29 C 516.30 100.12 519.31 102.44 521.12 105.69 C 515.41 106.62 509.66 106.06 503.95 105.61 C 507.31 103.56 511.82 102.50 513.14 98.29 Z" />
</g>
<g id="#133d4166">
<path fill="#133d41" opacity="0.40" d=" M 213.07 111.88 C 215.30 107.50 216.76 102.73 219.40 98.57 C 221.44 102.95 223.54 107.30 225.44 111.74 C 232.98 112.14 240.55 111.63 248.09 111.99 C 252.18 112.25 256.14 115.77 256.14 120.01 C 256.27 126.67 256.17 133.34 256.19 140.01 C 256.70 145.01 251.91 149.49 246.98 149.04 C 228.68 149.03 210.38 149.03 192.07 149.04 C 187.53 149.44 182.89 145.59 182.90 140.94 C 182.83 133.97 182.82 126.99 182.91 120.02 C 182.94 115.38 187.56 111.76 192.02 111.91 C 199.04 111.80 206.05 111.92 213.07 111.88 M 220.61 120.19 C 219.53 121.99 216.08 122.33 216.75 124.91 C 217.41 124.95 218.74 125.04 219.40 125.08 C 219.38 130.37 219.44 135.65 219.36 140.93 C 220.14 140.96 221.68 141.00 222.46 141.02 C 222.46 133.97 222.48 126.91 222.45 119.85 C 221.99 119.94 221.07 120.11 220.61 120.19 M 229.17 120.14 C 224.67 121.88 226.03 127.27 225.86 131.02 C 226.07 134.08 224.92 138.19 227.99 140.19 C 230.67 142.29 235.26 140.30 235.52 136.90 C 235.65 132.62 235.70 128.31 235.48 124.03 C 235.22 121.10 231.86 119.32 229.17 120.14 M 238.60 120.00 C 238.60 123.81 238.61 127.62 238.59 131.43 C 239.32 131.46 240.77 131.52 241.49 131.55 C 241.37 129.89 243.57 128.37 244.61 130.15 C 244.65 132.73 245.36 135.68 243.98 138.02 C 242.01 138.59 241.41 136.93 240.95 135.39 C 240.22 135.61 238.75 136.05 238.02 136.27 C 238.66 137.95 239.22 140.01 241.12 140.67 C 244.16 142.13 248.03 139.46 247.85 136.13 C 247.79 133.00 248.62 129.15 245.89 126.87 C 244.46 126.99 243.05 127.19 241.66 127.45 C 241.70 125.97 241.73 124.49 241.76 123.01 C 243.70 123.00 245.66 122.99 247.61 122.98 C 247.61 122.24 247.61 120.76 247.61 120.02 C 244.60 119.99 241.60 119.99 238.60 120.00 M 190.34 129.78 C 192.40 135.20 197.24 138.90 201.88 142.07 C 206.52 138.82 211.46 135.12 213.44 129.58 C 214.41 126.69 214.30 122.34 210.95 121.10 C 207.17 119.83 203.86 122.90 201.84 125.73 C 199.88 122.94 196.74 120.00 193.03 121.00 C 189.42 122.13 189.21 126.78 190.34 129.78 Z" />
<path fill="#133d41" opacity="0.40" d=" M 228.87 124.01 C 229.68 122.46 231.33 123.02 232.45 123.84 C 232.28 128.22 232.54 132.61 232.33 136.98 C 231.56 138.70 228.58 138.16 228.80 136.21 C 228.70 132.15 228.60 128.06 228.87 124.01 Z" />
<path fill="#133d41" opacity="0.40" d=" M 485.67 245.63 C 487.71 247.38 490.22 249.19 490.47 252.12 C 490.95 257.07 490.52 262.05 490.72 267.01 C 490.72 267.41 490.73 268.20 490.73 268.60 C 491.31 273.63 489.97 280.00 484.30 281.40 C 478.00 282.36 471.57 281.52 465.23 281.86 C 463.19 286.28 461.28 290.75 459.25 295.18 C 457.91 292.60 456.63 289.99 455.39 287.36 C 457.06 283.67 458.71 279.96 460.36 276.26 C 465.91 276.19 471.45 276.34 477.00 276.22 C 481.81 276.30 486.05 271.93 485.92 267.14 C 485.87 259.97 486.20 252.78 485.67 245.63 Z" />
<path fill="#133d41" opacity="0.40" d=" M 427.41 275.64 C 434.19 276.89 441.13 275.97 447.99 276.25 C 448.86 278.12 449.74 279.99 450.61 281.86 C 445.40 281.67 440.18 282.05 434.99 281.68 C 431.46 281.46 428.74 278.75 427.41 275.64 Z" />
</g>
<g id="#653616ff">
<path fill="#653616" opacity="1.00" d=" M 497.88 110.60 C 499.69 108.70 501.80 107.12 503.95 105.61 C 509.66 106.06 515.41 106.62 521.12 105.69 C 521.93 107.40 522.83 109.09 523.89 110.67 C 521.45 111.00 519.04 111.44 516.61 111.77 C 512.54 111.40 508.44 111.42 504.38 111.87 C 502.19 111.55 500.03 111.06 497.88 110.60 Z" />
</g>
<g id="#3a1e0bff">
<path fill="#3a1e0b" opacity="1.00" d=" M 497.88 110.60 C 500.03 111.06 502.19 111.55 504.38 111.87 C 499.47 112.21 499.01 117.48 497.58 121.09 C 497.42 121.51 497.12 122.35 496.97 122.77 C 497.44 124.25 497.86 125.79 497.67 127.37 C 497.54 127.80 497.28 128.67 497.15 129.11 C 496.67 127.11 496.24 125.11 495.93 123.09 C 495.95 118.86 495.73 114.42 497.88 110.60 Z" />
<path fill="#3a1e0b" opacity="1.00" d=" M 516.61 111.77 C 519.04 111.44 521.45 111.00 523.89 110.67 C 526.46 114.31 525.90 118.92 526.10 123.12 C 525.88 125.24 525.16 127.31 523.50 128.72 C 524.04 126.73 524.54 124.72 525.13 122.73 C 524.94 122.29 524.55 121.40 524.36 120.96 C 523.28 118.54 522.91 115.78 521.38 113.58 C 520.03 112.48 518.22 112.26 516.61 111.77 Z" />
</g>
<g id="#c58457ff">
<path fill="#c58457" opacity="1.00" d=" M 497.58 121.09 C 499.01 117.48 499.47 112.21 504.38 111.87 C 508.44 111.42 512.54 111.40 516.61 111.77 C 518.22 112.26 520.03 112.48 521.38 113.58 C 522.91 115.78 523.28 118.54 524.36 120.96 C 519.75 120.83 514.50 120.01 511.00 123.77 C 507.49 119.97 502.20 120.79 497.58 121.09 Z" />
<path fill="#c58457" opacity="1.00" d=" M 500.17 122.23 C 502.71 121.89 505.62 121.62 507.91 122.99 C 509.98 125.53 508.31 130.02 504.95 130.26 C 500.66 131.70 496.40 125.02 500.17 122.23 M 501.94 127.14 C 502.68 127.11 504.16 127.06 504.90 127.03 C 505.09 125.57 505.50 123.74 503.87 122.94 C 501.45 122.62 500.99 125.52 501.94 127.14 Z" />
<path fill="#c58457" opacity="1.00" d=" M 515.24 122.42 C 517.66 122.06 520.94 121.17 522.89 123.10 C 524.53 126.77 521.06 131.29 517.06 130.27 C 513.26 130.20 511.57 123.81 515.24 122.42 M 517.16 123.11 C 515.11 124.43 516.41 128.23 518.97 127.07 C 521.10 125.80 519.55 122.12 517.16 123.11 Z" />
<path fill="#c58457" opacity="1.00" d=" M 493.88 128.07 C 493.22 126.06 494.29 124.21 495.93 123.09 C 496.24 125.11 496.67 127.11 497.15 129.11 C 497.28 128.67 497.54 127.80 497.67 127.37 C 499.37 129.72 501.95 131.78 505.06 131.07 C 508.98 131.01 509.65 126.61 510.98 123.84 C 511.96 125.87 512.55 128.17 514.01 129.93 C 516.84 132.06 521.16 131.24 523.50 128.72 C 525.16 127.31 525.88 125.24 526.10 123.12 C 527.65 124.24 528.74 126.06 528.09 128.02 C 527.60 131.61 523.63 133.15 523.03 136.70 C 520.24 140.08 514.92 144.20 510.97 140.05 C 506.96 144.27 501.74 139.90 498.75 136.71 C 497.97 133.33 494.56 131.44 493.88 128.07 M 506.15 135.07 C 507.87 139.34 514.09 139.44 515.75 135.06 C 512.54 134.96 509.34 134.97 506.15 135.07 Z" />
<path fill="#c58457" opacity="1.00" d=" M 504.30 142.72 C 506.33 144.05 508.44 145.74 511.03 145.55 C 513.55 145.75 515.61 144.08 517.59 142.77 C 517.75 144.75 517.13 147.03 518.30 148.79 C 519.21 149.22 520.14 149.60 521.11 149.90 C 514.49 151.99 507.47 152.01 500.86 149.90 C 501.83 149.58 502.79 149.20 503.72 148.75 C 504.80 146.95 504.15 144.70 504.30 142.72 Z" />
</g>
<g id="#9ec0ccff">
<path fill="#9ec0cc" opacity="1.00" d=" M 497.58 121.09 C 502.20 120.79 507.49 119.97 511.00 123.77 C 514.50 120.01 519.75 120.83 524.36 120.96 C 524.55 121.40 524.94 122.29 525.13 122.73 C 524.54 124.72 524.04 126.73 523.50 128.72 C 521.16 131.24 516.84 132.06 514.01 129.93 C 512.55 128.17 511.96 125.87 510.98 123.84 C 509.65 126.61 508.98 131.01 505.06 131.07 C 501.95 131.78 499.37 129.72 497.67 127.37 C 497.86 125.79 497.44 124.25 496.97 122.77 C 497.12 122.35 497.42 121.51 497.58 121.09 M 500.17 122.23 C 496.40 125.02 500.66 131.70 504.95 130.26 C 508.31 130.02 509.98 125.53 507.91 122.99 C 505.62 121.62 502.71 121.89 500.17 122.23 M 515.24 122.42 C 511.57 123.81 513.26 130.20 517.06 130.27 C 521.06 131.29 524.53 126.77 522.89 123.10 C 520.94 121.17 517.66 122.06 515.24 122.42 Z" />
<path fill="#9ec0cc" opacity="1.00" d=" M 483.02 320.91 L 483.30 321.15 C 486.44 323.90 489.81 326.37 493.11 328.93 C 489.83 334.85 486.35 340.67 483.35 346.73 L 483.12 347.19 C 483.15 338.43 483.36 329.66 483.02 320.91 Z" />
<path fill="#9ec0cc" opacity="1.00" d=" M 511.43 328.89 C 514.60 326.43 517.75 323.95 520.99 321.58 C 521.34 329.52 521.58 337.56 520.86 345.47 C 517.53 340.05 514.38 334.52 511.43 328.89 Z" />
</g>
<g id="#4a301eff">
<path fill="#4a301e" opacity="1.00" d=" M 501.94 127.14 C 500.99 125.52 501.45 122.62 503.87 122.94 C 505.50 123.74 505.09 125.57 504.90 127.03 C 504.16 127.06 502.68 127.11 501.94 127.14 Z" />
</g>
<g id="#442c1bff">
<path fill="#442c1b" opacity="1.00" d=" M 517.16 123.11 C 519.55 122.12 521.10 125.80 518.97 127.07 C 516.41 128.23 515.11 124.43 517.16 123.11 Z" />
</g>
<g id="#423a40ff">
<path fill="#423a40" opacity="1.00" d=" M 37.41 141.51 C 42.82 136.34 50.91 133.83 58.21 135.84 C 61.01 136.49 62.76 138.85 64.54 140.89 C 59.86 142.52 54.86 141.68 50.02 141.89 C 45.81 142.07 41.59 142.07 37.41 141.51 Z" />
<path fill="#423a40" opacity="1.00" d=" M 67.34 172.15 C 68.16 171.50 68.99 170.85 69.79 170.18 C 68.13 174.68 68.42 179.97 71.54 183.80 C 69.01 183.48 66.56 182.78 64.36 181.48 C 64.49 182.93 64.62 184.38 64.74 185.83 C 63.15 185.20 61.55 184.57 59.96 183.95 L 59.77 185.20 C 59.68 184.62 59.50 183.46 59.41 182.88 C 63.29 180.36 66.37 176.77 67.34 172.15 Z" />
<path fill="#423a40" opacity="1.00" d=" M 33.53 171.12 C 36.26 170.91 36.18 174.12 37.18 175.91 C 38.30 179.16 41.46 180.93 43.97 183.01 C 43.96 183.43 43.95 184.27 43.94 184.69 C 42.03 183.66 40.16 185.31 38.36 185.77 C 38.48 184.31 38.60 182.87 38.73 181.43 C 36.55 182.82 34.06 183.55 31.49 183.73 C 34.46 180.26 35.04 175.37 33.53 171.12 Z" />
<path fill="#423a40" opacity="1.00" d=" M 290.85 376.58 C 292.25 376.17 292.71 376.66 292.23 378.06 C 290.82 378.46 290.36 377.97 290.85 376.58 Z" />
<path fill="#423a40" opacity="1.00" d=" M 280.07 380.13 C 281.33 378.48 283.88 381.15 282.09 382.13 C 280.93 383.21 279.10 381.56 280.07 380.13 Z" />
</g>
<g id="#391e0aff">
<path fill="#391e0a" opacity="1.00" d=" M 498.75 136.71 C 501.74 139.90 506.96 144.27 510.97 140.05 C 514.92 144.20 520.24 140.08 523.03 136.70 C 522.33 139.52 519.70 141.08 517.59 142.77 C 515.61 144.08 513.55 145.75 511.03 145.55 C 508.44 145.74 506.33 144.05 504.30 142.72 C 502.11 141.08 499.61 139.46 498.75 136.71 Z" />
</g>
<g id="#504853ff">
<path fill="#504853" opacity="1.00" d=" M 64.54 140.89 C 66.17 142.12 67.80 143.38 68.93 145.12 C 63.79 146.95 58.30 146.01 52.98 146.15 C 46.76 145.99 40.42 146.95 34.31 145.35 C 35.28 144.01 36.29 142.71 37.41 141.51 C 41.59 142.07 45.81 142.07 50.02 141.89 C 54.86 141.68 59.86 142.52 64.54 140.89 Z" />
</g>
<g id="#5b5463ff">
<path fill="#5b5463" opacity="1.00" d=" M 32.17 150.25 C 32.80 148.58 33.47 146.92 34.31 145.35 C 40.42 146.95 46.76 145.99 52.98 146.15 C 58.30 146.01 63.79 146.95 68.93 145.12 C 69.63 146.48 70.22 147.88 70.80 149.30 C 68.44 151.65 64.90 150.79 61.91 150.74 C 61.66 150.55 61.15 150.17 60.90 149.98 C 56.90 153.02 52.56 155.57 48.02 157.72 C 48.91 154.73 49.90 151.77 51.11 148.90 C 48.26 152.03 44.70 154.36 41.12 156.56 C 41.57 154.40 42.06 152.25 42.57 150.11 L 41.58 150.69 C 38.44 151.08 35.27 150.80 32.17 150.25 Z" />
</g>
<g id="#f7d9b5ff">
<path fill="#f7d9b5" opacity="1.00" d=" M 41.12 156.56 C 44.70 154.36 48.26 152.03 51.11 148.90 C 49.90 151.77 48.91 154.73 48.02 157.72 C 52.56 155.57 56.90 153.02 60.90 149.98 C 61.15 150.17 61.66 150.55 61.91 150.74 C 65.54 155.72 67.14 161.80 67.39 167.89 C 68.73 165.02 70.00 162.12 71.32 159.24 C 72.56 162.99 72.38 167.03 69.79 170.18 C 68.99 170.85 68.16 171.50 67.34 172.15 C 66.37 176.77 63.29 180.36 59.41 182.88 C 56.84 184.40 54.07 186.07 50.96 185.89 C 48.40 185.65 46.16 184.25 43.97 183.01 C 41.46 180.93 38.30 179.16 37.18 175.91 C 36.18 174.12 36.26 170.91 33.53 171.12 C 31.99 167.83 30.56 164.24 31.77 160.60 C 32.32 160.38 33.42 159.95 33.96 159.73 C 34.70 162.43 35.71 165.03 37.00 167.51 C 37.27 161.66 38.17 155.62 41.58 150.69 L 42.57 150.11 C 42.06 152.25 41.57 154.40 41.12 156.56 M 42.46 159.63 C 38.74 159.59 41.19 165.72 43.97 164.03 C 46.77 163.16 45.12 158.85 42.46 159.63 M 58.58 160.39 C 56.79 161.90 58.86 164.91 60.96 164.21 C 62.70 163.60 62.90 161.63 62.79 160.08 C 61.42 159.86 59.66 159.06 58.58 160.39 M 46.51 173.93 C 47.64 178.18 55.56 178.23 56.52 173.94 C 55.00 174.59 53.54 175.37 51.95 175.85 C 49.98 175.83 48.30 174.59 46.51 173.93 Z" />
</g>
<g id="#665f72ff">
<path fill="#665f72" opacity="1.00" d=" M 70.80 149.30 C 71.42 152.57 71.60 155.92 71.32 159.24 C 70.00 162.12 68.73 165.02 67.39 167.89 C 67.14 161.80 65.54 155.72 61.91 150.74 C 64.90 150.79 68.44 151.65 70.80 149.30 Z" />
<path fill="#665f72" opacity="1.00" d=" M 31.77 160.60 C 31.74 157.14 31.57 153.66 32.17 150.25 C 35.27 150.80 38.44 151.08 41.58 150.69 C 38.17 155.62 37.27 161.66 37.00 167.51 C 35.71 165.03 34.70 162.43 33.96 159.73 C 33.42 159.95 32.32 160.38 31.77 160.60 Z" />
</g>
<g id="#dfd94dff">
<path fill="#dfd94d" opacity="1.00" d=" M 487.26 154.26 C 491.73 152.63 496.25 151.09 500.86 149.90 C 507.47 152.01 514.49 151.99 521.11 149.90 C 525.70 151.08 530.20 152.60 534.64 154.27 C 530.26 158.55 524.50 161.15 518.61 162.58 C 518.25 162.65 517.52 162.79 517.16 162.86 C 507.08 164.29 496.29 162.08 488.46 155.33 L 487.65 154.65 L 487.26 154.26 Z" />
<path fill="#dfd94d" opacity="1.00" d=" M 263.08 388.46 C 281.73 388.45 300.38 388.36 319.02 388.36 C 319.38 421.23 319.26 454.12 319.36 487.00 C 300.66 487.13 281.95 487.07 263.25 487.17 C 263.20 454.27 262.97 421.36 263.08 388.46 M 287.33 410.49 C 283.91 412.32 283.64 416.70 284.07 420.12 C 284.51 423.41 287.69 425.67 287.95 428.99 C 284.92 433.22 278.18 431.89 274.92 435.96 C 273.71 437.49 274.11 439.51 274.14 441.32 C 285.49 441.44 296.83 441.36 308.18 441.36 C 308.42 439.24 308.63 436.68 306.78 435.18 C 303.73 432.77 299.61 432.54 296.22 430.76 C 294.82 430.17 293.83 428.56 294.86 427.16 C 296.82 423.74 299.34 420.18 298.34 415.98 C 298.33 410.64 291.60 407.73 287.33 410.49 Z" />
</g>
<g id="#e2ae80ff">
<path fill="#e2ae80" opacity="1.00" d=" M 46.51 173.93 C 48.30 174.59 49.98 175.83 51.95 175.85 C 53.54 175.37 55.00 174.59 56.52 173.94 C 55.56 178.23 47.64 178.18 46.51 173.93 Z" />
</g>
<g id="#803c15ff">
<path fill="#803c15" opacity="1.00" d=" M 354.86 177.53 C 360.42 176.44 367.19 176.00 371.38 180.58 C 370.86 184.32 371.72 188.54 369.56 191.86 C 366.64 196.92 362.36 201.13 357.02 203.58 C 357.89 200.60 358.82 197.64 359.89 194.73 C 358.37 196.23 356.84 197.74 355.12 199.02 C 354.82 191.86 354.88 184.69 354.86 177.53 Z" />
</g>
<g id="#732e0cff">
<path fill="#732e0c" opacity="1.00" d=" M 342.91 183.88 C 345.98 180.40 350.50 178.74 354.86 177.53 C 354.88 184.69 354.82 191.86 355.12 199.02 C 353.34 200.23 351.50 201.36 349.80 202.68 C 348.70 203.67 347.65 204.72 346.66 205.83 C 345.80 206.90 345.00 208.01 344.19 209.11 C 343.95 207.59 343.70 206.07 343.45 204.55 C 342.70 208.01 342.32 211.54 342.19 215.08 C 340.29 211.54 338.88 207.74 338.32 203.76 C 338.21 202.18 338.16 200.61 338.11 199.04 C 337.10 200.12 336.11 201.21 335.10 202.28 C 335.47 195.46 338.51 189.02 342.91 183.88 Z" />
</g>
<g id="#8c4a1fff">
<path fill="#8c4a1f" opacity="1.00" d=" M 371.38 180.58 C 372.16 181.78 372.90 183.01 373.65 184.23 C 381.81 186.95 382.99 196.95 382.20 204.32 C 381.32 208.00 380.02 211.58 378.04 214.81 C 377.70 211.08 377.47 207.28 376.16 203.74 C 374.74 199.38 371.71 195.85 369.56 191.86 C 371.72 188.54 370.86 184.32 371.38 180.58 Z" />
</g>
<g id="#f2c99dff">
<path fill="#f2c99d" opacity="1.00" d=" M 43.97 183.01 C 46.16 184.25 48.40 185.65 50.96 185.89 C 54.07 186.07 56.84 184.40 59.41 182.88 C 59.50 183.46 59.68 184.62 59.77 185.20 L 59.79 186.00 C 57.45 192.54 48.35 191.52 43.76 188.01 C 43.80 187.18 43.89 185.52 43.94 184.69 C 43.95 184.27 43.96 183.43 43.97 183.01 Z" />
</g>
<g id="#eaeaeaff">
<path fill="#eaeaea" opacity="1.00" d=" M 43.76 188.01 C 48.35 191.52 57.45 192.54 59.79 186.00 C 60.47 187.59 61.25 189.15 62.04 190.70 C 60.39 193.19 58.66 195.62 56.87 198.01 C 56.46 197.67 55.63 196.99 55.21 196.65 C 53.96 195.32 52.84 193.86 51.70 192.44 C 50.74 194.15 48.03 195.65 48.85 197.83 C 48.19 197.75 46.89 197.57 46.23 197.49 C 44.44 195.12 42.65 192.75 40.82 190.41 C 41.82 189.64 42.79 188.82 43.76 188.01 Z" />
</g>
<g id="#bed7e2ff">
<path fill="#bed7e2" opacity="1.00" d=" M 37.60 192.31 C 38.68 191.69 39.76 191.06 40.82 190.41 C 42.65 192.75 44.44 195.12 46.23 197.49 C 46.89 197.57 48.19 197.75 48.85 197.83 L 49.28 198.85 C 48.71 200.78 48.03 202.66 47.38 204.56 C 50.16 204.68 52.95 204.68 55.74 204.60 C 55.12 202.71 54.50 200.84 53.84 198.98 C 54.19 198.40 54.87 197.23 55.21 196.65 C 55.63 196.99 56.46 197.67 56.87 198.01 C 58.66 195.62 60.39 193.19 62.04 190.70 C 67.08 192.31 72.09 193.99 77.14 195.58 C 71.89 200.44 65.01 203.23 58.03 204.47 L 56.95 204.73 C 51.90 205.45 46.80 204.92 41.85 203.77 C 41.51 199.64 39.99 195.68 37.60 192.31 Z" />
<path fill="#bed7e2" opacity="1.00" d=" M 493.11 328.93 C 496.12 331.28 499.12 333.63 502.18 335.91 C 505.34 333.67 508.37 331.26 511.43 328.89 C 514.38 334.52 517.53 340.05 520.86 345.47 C 521.02 345.79 521.35 346.42 521.51 346.74 C 508.79 346.84 496.07 346.84 483.35 346.73 C 486.35 340.67 489.83 334.85 493.11 328.93 Z" />
</g>
<g id="#d7aa8aff">
<path fill="#d7aa8a" opacity="1.00" d=" M 357.02 203.58 C 362.36 201.13 366.64 196.92 369.56 191.86 C 371.71 195.85 374.74 199.38 376.16 203.74 C 377.47 207.28 377.70 211.08 378.04 214.81 C 380.02 211.58 381.32 208.00 382.20 204.32 C 384.63 209.18 381.94 214.89 377.52 217.51 C 376.53 222.78 373.06 226.88 368.65 229.72 C 365.81 231.69 362.60 233.71 359.00 233.42 C 356.02 233.25 353.44 231.58 351.05 229.96 C 348.95 228.41 346.83 226.85 345.06 224.93 C 342.65 222.31 342.96 218.12 340.04 215.86 C 336.79 212.94 334.83 207.27 338.32 203.76 C 338.88 207.74 340.29 211.54 342.19 215.08 C 342.32 211.54 342.70 208.01 343.45 204.55 C 343.70 206.07 343.95 207.59 344.19 209.11 C 345.00 208.01 345.80 206.90 346.66 205.83 C 347.23 207.49 348.57 209.67 350.63 208.54 C 353.00 206.94 351.73 203.99 349.80 202.68 C 351.50 201.36 353.34 200.23 355.12 199.02 C 356.84 197.74 358.37 196.23 359.89 194.73 C 358.82 197.64 357.89 200.60 357.02 203.58 M 368.38 203.40 C 365.78 204.56 366.84 209.29 369.81 208.79 C 373.38 208.17 371.85 201.73 368.38 203.40 M 353.17 219.59 C 355.60 224.79 363.70 224.93 366.01 219.55 C 361.73 219.46 357.45 219.44 353.17 219.59 Z" />
<path fill="#d7aa8a" opacity="1.00" d=" M 351.08 234.03 C 353.98 235.05 356.89 236.44 360.04 236.34 C 362.67 236.05 365.19 235.15 367.72 234.39 C 367.95 234.82 368.42 235.68 368.65 236.11 C 369.29 238.41 371.64 238.87 373.63 239.49 C 369.42 242.41 365.50 246.57 360.05 246.86 C 354.60 246.77 350.10 243.09 346.45 239.40 C 349.32 239.01 351.30 237.04 351.08 234.03 Z" />
<path fill="#d7aa8a" opacity="1.00" d=" M 327.45 246.10 C 329.08 245.20 330.76 244.37 332.54 243.81 C 332.56 246.01 332.58 248.20 332.60 250.40 C 330.78 249.10 329.07 247.64 327.45 246.10 Z" />
<path fill="#d7aa8a" opacity="1.00" d=" M 387.07 243.82 C 389.10 244.48 391.05 245.37 392.95 246.34 C 391.16 248.10 389.11 249.56 387.07 251.01 C 387.06 248.61 387.06 246.22 387.07 243.82 Z" />
</g>
<g id="#c84330ff">
<path fill="#c84330" opacity="1.00" d=" M 48.85 197.83 C 48.03 195.65 50.74 194.15 51.70 192.44 C 52.84 193.86 53.96 195.32 55.21 196.65 C 54.87 197.23 54.19 198.40 53.84 198.98 C 54.50 200.84 55.12 202.71 55.74 204.60 C 52.95 204.68 50.16 204.68 47.38 204.56 C 48.03 202.66 48.71 200.78 49.28 198.85 L 48.85 197.83 Z" />
</g>
<g id="#319aa4ff">
<path fill="#319aa4" opacity="1.00" d=" M 99.65 201.12 C 100.64 199.46 101.58 196.88 103.93 196.98 C 106.02 197.36 106.76 199.60 107.77 201.17 C 109.39 201.79 111.00 202.44 112.61 203.12 C 114.47 202.64 116.98 201.50 118.53 203.26 C 119.70 204.96 118.64 207.01 118.25 208.79 C 118.94 210.41 119.61 212.04 120.25 213.67 C 121.98 214.66 124.54 215.64 124.42 218.06 C 123.86 220.00 121.90 220.77 120.30 221.64 C 119.64 223.29 118.95 224.94 118.24 226.58 C 118.65 228.40 119.82 230.66 118.34 232.31 C 116.67 233.87 114.35 232.47 112.42 232.35 C 110.80 232.92 109.23 233.65 107.64 234.30 C 106.77 235.89 106.01 237.84 104.09 238.40 C 101.64 238.59 100.66 235.99 99.67 234.25 C 98.03 233.61 96.40 232.93 94.79 232.25 C 92.89 232.68 90.35 233.94 88.83 232.08 C 87.68 230.42 88.71 228.37 89.11 226.64 C 88.45 225.04 87.80 223.43 87.20 221.80 C 85.63 220.78 83.36 220.05 82.98 217.96 C 82.85 215.59 85.46 214.65 87.12 213.65 C 87.77 212.03 88.42 210.43 89.09 208.83 C 88.69 206.93 87.65 204.81 88.94 203.01 C 90.73 201.62 92.91 202.70 94.82 203.10 C 96.42 202.43 98.03 201.77 99.65 201.12 M 100.51 206.66 C 96.32 207.84 93.00 211.56 92.36 215.87 C 91.12 222.32 96.47 228.94 103.02 229.14 C 109.60 229.71 115.69 223.64 115.14 217.05 C 114.97 209.97 107.27 204.45 100.51 206.66 Z" />
<path fill="#319aa4" opacity="1.00" d=" M 101.35 213.42 C 104.50 211.50 108.95 214.31 108.54 217.99 C 108.49 221.50 104.11 223.79 101.18 221.86 C 98.01 220.15 98.10 214.99 101.35 213.42 Z" />
<path fill="#319aa4" opacity="1.00" d=" M 441.33 256.56 C 443.12 255.14 446.07 256.76 445.84 259.03 C 445.93 261.40 442.60 262.76 441.01 261.01 C 439.64 259.87 439.86 257.51 441.33 256.56 Z" />
<path fill="#319aa4" opacity="1.00" d=" M 452.37 256.56 C 454.16 255.13 457.10 256.77 456.86 259.03 C 456.92 261.13 454.31 262.53 452.57 261.42 C 450.76 260.49 450.64 257.62 452.37 256.56 Z" />
<path fill="#319aa4" opacity="1.00" d=" M 464.10 256.17 C 467.76 254.81 469.49 260.94 465.73 261.73 C 462.29 262.72 460.71 257.21 464.10 256.17 Z" />
<path fill="#319aa4" opacity="1.00" d=" M 476.86 317.12 C 485.32 303.77 504.70 299.42 518.02 307.94 C 531.75 315.81 536.82 335.08 528.80 348.72 C 521.89 361.81 504.77 367.86 491.10 362.25 C 489.02 361.38 487.03 360.32 485.15 359.10 C 473.53 351.51 468.70 335.58 473.92 322.75 C 474.77 320.81 475.73 318.91 476.86 317.12 M 483.02 320.91 C 483.36 329.66 483.15 338.43 483.12 347.19 L 483.35 346.73 C 496.07 346.84 508.79 346.84 521.51 346.74 C 521.35 346.42 521.02 345.79 520.86 345.47 C 521.58 337.56 521.34 329.52 520.99 321.58 L 521.58 321.14 C 508.82 321.07 496.06 321.05 483.30 321.15 L 483.02 320.91 Z" />
</g>
<g id="#eff8ffff">
<path fill="#eff8ff" opacity="1.00" d=" M 130.15 226.40 C 131.19 225.16 131.87 222.88 133.91 223.26 C 135.29 223.85 135.83 225.36 136.60 226.53 C 137.84 227.02 139.09 227.52 140.34 228.01 C 141.93 227.56 143.57 227.28 145.20 227.80 C 145.49 229.39 145.38 230.96 144.88 232.51 C 145.37 233.78 145.87 235.04 146.38 236.31 C 147.56 237.06 149.02 237.61 149.66 238.97 C 150.02 241.04 147.73 241.80 146.38 242.70 C 145.87 243.97 145.36 245.24 144.87 246.52 C 145.39 248.06 145.50 249.62 145.20 251.22 C 143.57 251.71 141.92 251.44 140.32 251.00 C 139.08 251.49 137.85 251.98 136.62 252.47 C 135.85 253.65 135.27 255.09 133.94 255.77 C 131.88 256.07 131.06 253.91 130.20 252.49 C 128.94 251.99 127.68 251.49 126.42 251.00 C 125.51 251.13 123.70 251.40 122.79 251.54 C 120.46 250.83 121.53 248.11 121.92 246.46 C 121.42 245.21 120.91 243.96 120.42 242.72 C 119.03 241.82 116.90 241.09 117.09 239.05 C 117.70 237.63 119.21 237.06 120.42 236.28 C 120.91 235.05 121.41 233.83 121.92 232.62 C 121.53 230.89 120.47 228.25 122.80 227.42 C 123.70 227.57 125.50 227.88 126.40 228.03 C 127.65 227.50 129.01 227.14 130.15 226.40 M 129.37 231.46 C 123.40 234.13 122.70 243.34 128.22 246.86 C 133.63 251.08 142.38 246.72 142.39 239.90 C 142.94 233.34 135.15 228.23 129.37 231.46 Z" />
<path fill="#eff8ff" opacity="1.00" d=" M 131.26 236.30 C 133.84 234.42 137.80 236.90 137.18 240.04 C 136.93 242.72 133.50 244.28 131.30 242.73 C 129.01 241.37 129.01 237.69 131.26 236.30 Z" />
</g>
<g id="#c19679ff">
<path fill="#c19679" opacity="1.00" d=" M 351.05 229.96 C 353.44 231.58 356.02 233.25 359.00 233.42 C 362.60 233.71 365.81 231.69 368.65 229.72 C 368.62 231.85 368.58 233.98 368.65 236.11 C 368.42 235.68 367.95 234.82 367.72 234.39 C 365.19 235.15 362.67 236.05 360.04 236.34 C 356.89 236.44 353.98 235.05 351.08 234.03 C 351.08 232.67 351.07 231.31 351.05 229.96 Z" />
</g>
<g id="#6f6584dd">
<path fill="#6f6584" opacity="0.87" d=" M 344.70 256.27 C 345.29 256.44 346.47 256.77 347.06 256.94 C 346.47 256.77 345.29 256.44 344.70 256.27 Z" />
</g>
<g id="#635b7dd4">
<path fill="#635b7d" opacity="0.83" d=" M 347.84 257.04 C 349.24 256.50 351.39 256.46 351.89 258.25 C 350.42 258.43 348.90 258.10 347.84 257.04 Z" />
</g>
<g id="#5d5571c1">
<path fill="#5d5571" opacity="0.76" d=" M 369.06 258.11 C 369.54 256.33 371.73 256.37 373.05 257.15 C 371.92 258.08 370.46 258.34 369.06 258.11 Z" />
</g>
<g id="#695f79ca">
<path fill="#695f79" opacity="0.79" d=" M 352.36 258.24 C 357.74 258.16 363.11 258.18 368.49 258.11 C 363.27 259.52 357.62 259.38 352.36 258.24 Z" />
</g>
<g id="#9a3529ff">
<path fill="#9a3529" opacity="1.00" d=" M 77.12 306.22 C 80.96 302.01 87.03 300.38 92.49 302.02 C 85.99 309.44 76.14 312.98 69.88 320.63 C 68.46 321.97 67.12 323.42 66.22 325.18 C 64.53 325.89 62.83 326.57 61.12 327.25 C 58.20 320.38 61.91 312.78 67.23 308.28 C 69.93 305.85 73.71 305.59 77.12 306.22 Z" />
</g>
<g id="#c23d2cff">
<path fill="#c23d2c" opacity="1.00" d=" M 92.49 302.02 C 97.97 303.50 103.06 306.59 106.45 311.21 C 100.13 316.34 92.82 320.29 87.14 326.17 C 82.55 324.56 78.72 321.30 76.27 317.11 C 74.28 318.52 72.14 319.71 69.88 320.63 C 76.14 312.98 85.99 309.44 92.49 302.02 Z" />
</g>
<g id="#904f22ff">
<path fill="#904f22" opacity="1.00" d=" M 408.61 313.63 C 414.58 310.62 421.44 310.33 427.99 310.86 C 438.48 311.83 448.31 318.78 452.18 328.68 C 457.98 342.45 455.03 357.69 454.62 372.13 C 452.87 371.96 451.12 371.78 449.38 371.62 C 449.69 368.96 449.93 366.29 450.04 363.62 C 452.75 360.82 455.24 357.07 454.43 352.97 C 454.19 350.90 452.14 349.98 450.83 348.65 C 453.97 334.82 442.50 320.89 428.97 318.81 C 415.97 316.16 401.63 324.06 397.58 336.82 C 396.27 340.59 395.90 344.69 396.83 348.60 C 395.36 349.88 393.21 350.83 393.02 353.03 C 392.12 357.37 395.15 360.98 397.59 364.19 C 397.79 366.86 397.96 369.53 398.30 372.19 C 396.51 372.15 394.73 372.11 392.95 372.08 C 391.91 358.58 388.72 344.51 393.28 331.32 C 395.72 323.66 401.22 316.95 408.61 313.63 Z" />
</g>
<g id="#e5442fff">
<path fill="#e5442f" opacity="1.00" d=" M 87.14 326.17 C 92.82 320.29 100.13 316.34 106.45 311.21 C 107.46 312.91 108.30 314.72 108.88 316.62 C 104.45 319.10 100.44 322.21 96.61 325.52 C 95.01 324.46 93.40 323.42 91.79 322.38 C 92.62 324.03 93.46 325.68 94.29 327.34 C 91.88 327.11 89.47 326.85 87.14 326.17 Z" />
</g>
<g id="#f94831ff">
<path fill="#f94831" opacity="1.00" d=" M 96.61 325.52 C 100.44 322.21 104.45 319.10 108.88 316.62 C 110.11 322.09 110.02 327.96 107.48 333.06 C 106.41 335.42 105.06 337.62 103.69 339.81 C 103.99 337.42 104.32 335.04 104.65 332.66 C 104.20 332.51 103.29 332.21 102.84 332.06 C 101.17 329.51 99.32 327.04 96.61 325.52 Z" />
</g>
<g id="#fff68bff">
<path fill="#fff68b" opacity="1.00" d=" M 397.58 336.82 C 401.63 324.06 415.97 316.16 428.97 318.81 C 442.50 320.89 453.97 334.82 450.83 348.65 C 448.98 345.68 447.76 342.23 445.03 339.91 C 439.62 335.04 432.11 333.37 425.02 333.19 C 417.47 333.08 409.53 334.76 403.49 339.53 C 400.42 341.84 398.87 345.46 396.83 348.60 C 395.90 344.69 396.27 340.59 397.58 336.82 Z" />
</g>
<g id="#b93b2cff">
<path fill="#b93b2c" opacity="1.00" d=" M 61.12 327.25 C 62.83 326.57 64.53 325.89 66.22 325.18 C 64.78 329.50 64.90 334.11 64.73 338.62 C 64.12 336.83 63.51 335.05 62.92 333.27 C 62.29 331.27 61.70 329.26 61.12 327.25 Z" />
</g>
<g id="#e4b194ff">
<path fill="#e4b194" opacity="1.00" d=" M 403.49 339.53 C 409.53 334.76 417.47 333.08 425.02 333.19 C 432.11 333.37 439.62 335.04 445.03 339.91 C 447.76 342.23 448.98 345.68 450.83 348.65 C 452.14 349.98 454.19 350.90 454.43 352.97 C 455.24 357.07 452.75 360.82 450.04 363.62 C 449.89 362.65 449.60 360.71 449.45 359.74 C 450.33 358.77 451.22 357.81 452.12 356.87 C 451.58 354.86 449.96 353.88 447.96 353.76 C 446.30 357.28 449.57 360.39 449.26 363.96 C 446.62 365.16 446.59 368.26 445.57 370.60 C 444.67 373.19 442.77 375.25 440.82 377.10 C 438.35 378.92 435.66 380.44 432.87 381.70 C 429.93 382.86 426.93 384.13 423.75 384.40 C 420.64 384.14 417.75 382.83 414.80 381.91 L 414.70 381.88 C 410.59 379.67 406.14 377.52 403.40 373.59 C 401.32 370.77 401.23 367.02 399.15 364.21 C 399.02 365.17 398.76 367.11 398.63 368.08 C 398.35 366.76 398.01 365.45 397.59 364.19 C 395.15 360.98 392.12 357.37 393.02 353.03 C 393.21 350.83 395.36 349.88 396.83 348.60 C 398.87 345.46 400.42 341.84 403.49 339.53 M 406.72 350.33 C 406.32 350.34 405.52 350.36 405.12 350.37 C 407.07 352.18 406.61 356.37 409.99 356.44 C 413.97 356.42 414.74 350.06 411.27 348.58 C 409.48 347.71 407.92 349.19 406.72 350.33 M 435.45 348.48 C 431.39 349.77 432.53 357.18 437.07 356.42 C 439.82 355.59 439.60 352.23 441.10 350.26 C 438.85 350.79 437.77 347.48 435.45 348.48 M 395.75 356.02 C 395.22 357.67 396.94 358.51 397.92 359.42 C 398.11 360.94 398.33 362.46 398.66 363.97 C 398.26 360.55 400.68 357.54 399.75 354.18 C 398.19 353.90 396.01 354.04 395.75 356.02 M 405.31 358.30 C 403.28 358.87 401.65 361.25 402.65 363.29 C 403.51 365.97 407.71 366.90 409.26 364.31 C 411.57 361.74 408.59 357.15 405.31 358.30 M 438.32 358.42 C 436.18 359.41 435.02 362.40 436.72 364.30 C 438.32 366.80 442.46 365.99 443.41 363.34 C 444.78 360.48 441.12 357.11 438.32 358.42 M 413.08 368.05 C 414.33 371.23 416.63 374.15 420.05 375.13 C 425.71 377.51 432.54 373.71 434.33 368.03 C 427.24 367.99 420.16 367.94 413.08 368.05 Z" />
<path fill="#e4b194" opacity="1.00" d=" M 414.75 385.21 C 420.29 387.22 426.18 386.67 431.89 385.90 C 432.20 387.24 432.55 388.59 432.82 389.96 L 432.90 390.66 C 426.76 391.02 420.62 390.99 414.48 390.69 C 414.63 388.87 414.71 387.04 414.75 385.21 Z" />
</g>
<g id="#ec9d85ff">
<path fill="#ec9d85" opacity="1.00" d=" M 70.43 341.47 C 72.38 341.02 74.66 343.05 74.11 345.10 C 74.00 347.54 70.70 348.67 68.95 347.11 C 66.81 345.55 67.82 341.82 70.43 341.47 Z" />
<path fill="#ec9d85" opacity="1.00" d=" M 98.39 341.45 C 102.22 340.62 103.67 346.86 99.81 347.74 C 95.67 349.00 94.14 342.12 98.39 341.45 Z" />
</g>
<g id="#ffbfbfff">
<path fill="#ffbfbf" opacity="1.00" d=" M 78.37 350.70 C 82.69 349.78 87.25 349.71 91.56 350.67 C 89.19 355.87 80.82 355.81 78.37 350.70 Z" />
</g>
<g id="#e19e83ff">
<path fill="#e19e83" opacity="1.00" d=" M 405.31 358.30 C 408.59 357.15 411.57 361.74 409.26 364.31 C 407.71 366.90 403.51 365.97 402.65 363.29 C 401.65 361.25 403.28 358.87 405.31 358.30 Z" />
<path fill="#e19e83" opacity="1.00" d=" M 438.32 358.42 C 441.12 357.11 444.78 360.48 443.41 363.34 C 442.46 365.99 438.32 366.80 436.72 364.30 C 435.02 362.40 436.18 359.41 438.32 358.42 Z" />
</g>
<g id="#f2bb8fff">
<path fill="#f2bb8f" opacity="1.00" d=" M 77.04 361.06 C 81.78 363.48 87.24 363.58 91.98 361.12 C 92.02 361.90 92.10 363.45 92.13 364.23 C 87.19 365.46 82.04 365.48 77.09 364.25 C 77.08 363.45 77.05 361.86 77.04 361.06 Z" />
</g>
<g id="#f8f8f7ff">
<path fill="#f8f8f7" opacity="1.00" d=" M 397.59 364.19 C 398.01 365.45 398.35 366.76 398.63 368.08 C 399.09 373.36 400.29 378.61 402.55 383.42 C 404.31 387.17 406.67 390.59 409.27 393.80 C 406.84 393.14 405.92 390.39 404.47 388.58 C 402.81 385.89 401.41 383.04 400.31 380.07 C 399.45 377.50 398.74 374.87 398.30 372.19 C 397.96 369.53 397.79 366.86 397.59 364.19 Z" />
<path fill="#f8f8f7" opacity="1.00" d=" M 266.27 374.44 C 268.71 373.41 271.42 373.61 274.00 373.55 C 286.67 373.64 299.34 373.46 312.01 373.54 C 318.04 373.33 322.83 379.13 322.21 384.99 C 322.27 418.32 322.37 451.65 322.43 484.99 C 322.37 488.86 322.99 493.22 320.47 496.51 C 318.04 500.32 313.12 501.08 308.96 501.08 C 296.64 501.08 284.32 501.09 272.01 501.11 C 266.39 501.35 260.47 497.08 260.42 491.15 C 260.28 455.38 260.26 419.61 260.16 383.84 C 260.05 379.85 262.67 376.05 266.27 374.44 M 290.85 376.58 C 290.36 377.97 290.82 378.46 292.23 378.06 C 292.71 376.66 292.25 376.17 290.85 376.58 M 280.07 380.13 C 279.10 381.56 280.93 383.21 282.09 382.13 C 283.88 381.15 281.33 378.48 280.07 380.13 M 285.66 381.87 C 289.39 382.11 293.14 381.99 296.88 381.97 L 296.83 380.95 C 293.16 381.38 288.92 379.86 285.66 381.87 M 263.08 388.46 C 262.97 421.36 263.20 454.27 263.25 487.17 C 281.95 487.07 300.66 487.13 319.36 487.00 C 319.26 454.12 319.38 421.23 319.02 388.36 C 300.38 388.36 281.73 388.45 263.08 388.46 M 287.95 497.64 C 288.21 495.48 287.26 492.76 289.11 491.10 C 291.24 488.56 296.27 490.56 295.91 493.93 C 296.19 495.61 294.83 496.71 293.86 497.84 C 292.04 497.83 290.23 497.88 288.43 497.99 C 291.36 501.52 297.94 498.46 297.20 493.95 C 297.44 491.07 294.85 488.55 292.01 488.69 C 287.44 488.02 284.39 494.61 287.95 497.64 Z" />
</g>
<g id="#743f1aff">
<path fill="#743f1a" opacity="1.00" d=" M 399.15 364.21 C 401.23 367.02 401.32 370.77 403.40 373.59 C 406.14 377.52 410.59 379.67 414.70 381.88 C 410.83 383.41 406.64 383.39 402.55 383.42 C 400.29 378.61 399.09 373.36 398.63 368.08 C 398.76 367.11 399.02 365.17 399.15 364.21 Z" />
</g>
<g id="#80461eff">
<path fill="#80461e" opacity="1.00" d=" M 445.57 370.60 C 446.59 368.26 446.62 365.16 449.26 363.96 C 449.06 368.50 448.61 373.07 447.32 377.45 C 445.15 377.33 442.98 377.21 440.82 377.10 C 442.77 375.25 444.67 373.19 445.57 370.60 Z" />
</g>
<g id="#dc8a54ff">
<path fill="#dc8a54" opacity="1.00" d=" M 413.08 368.05 C 420.16 367.94 427.24 367.99 434.33 368.03 C 432.54 373.71 425.71 377.51 420.05 375.13 C 416.63 374.15 414.33 371.23 413.08 368.05 M 415.72 369.78 C 419.23 375.38 428.22 375.50 431.66 369.75 C 426.34 369.67 421.03 369.63 415.72 369.78 Z" />
</g>
<g id="#ddddddff">
<path fill="#dddddd" opacity="1.00" d=" M 264.85 372.90 C 268.31 371.06 272.35 371.64 276.12 371.50 C 276.58 371.50 277.51 371.51 277.98 371.51 C 287.19 371.48 296.40 371.55 305.60 371.42 C 306.16 371.41 307.28 371.40 307.84 371.39 C 311.47 371.39 315.42 371.22 318.56 373.41 C 322.46 375.82 324.50 380.45 324.23 384.97 C 324.29 418.32 324.39 451.67 324.46 485.02 C 324.44 488.01 324.76 491.09 323.93 494.03 C 322.53 498.77 318.00 502.64 312.92 502.47 C 298.64 502.58 284.35 502.57 270.06 502.55 C 263.45 502.83 258.07 496.46 258.43 490.07 C 258.31 462.99 258.31 435.90 258.20 408.82 C 258.20 408.42 258.18 407.62 258.18 407.22 C 258.20 399.46 258.17 391.71 258.16 383.96 C 258.08 379.39 260.77 374.95 264.85 372.90 M 266.27 374.44 C 262.67 376.05 260.05 379.85 260.16 383.84 C 260.26 419.61 260.28 455.38 260.42 491.15 C 260.47 497.08 266.39 501.35 272.01 501.11 C 284.32 501.09 296.64 501.08 308.96 501.08 C 313.12 501.08 318.04 500.32 320.47 496.51 C 322.99 493.22 322.37 488.86 322.43 484.99 C 322.37 451.65 322.27 418.32 322.21 384.99 C 322.83 379.13 318.04 373.33 312.01 373.54 C 299.34 373.46 286.67 373.64 274.00 373.55 C 271.42 373.61 268.71 373.41 266.27 374.44 Z" />
</g>
<g id="#7b431cff">
<path fill="#7b431c" opacity="1.00" d=" M 392.95 372.08 C 394.73 372.11 396.51 372.15 398.30 372.19 C 398.74 374.87 399.45 377.50 400.31 380.07 C 398.18 380.13 396.04 380.19 393.92 380.26 C 393.55 377.53 393.25 374.80 392.95 372.08 Z" />
<path fill="#7b431c" opacity="1.00" d=" M 446.99 380.76 C 448.08 377.80 448.89 374.73 449.38 371.62 C 451.12 371.78 452.87 371.96 454.62 372.13 C 454.40 375.31 454.19 378.50 453.91 381.68 C 451.61 381.30 449.30 381.00 446.99 380.76 Z" />
</g>
<g id="#578192ff">
<path fill="#578192" opacity="1.00" d=" M 60.57 377.24 C 61.10 377.02 62.17 376.59 62.70 376.38 C 63.88 378.70 65.00 381.21 67.14 382.83 C 70.49 385.62 74.98 386.16 78.76 388.13 C 81.12 389.31 83.04 391.17 84.96 392.94 C 88.45 389.04 93.23 386.89 98.13 385.39 C 102.49 384.12 105.33 380.43 107.42 376.63 C 111.09 377.73 114.70 379.21 117.47 381.95 C 113.94 385.10 109.78 387.39 105.64 389.61 C 102.12 391.55 98.23 392.76 94.25 393.23 C 92.47 392.30 90.33 392.49 88.92 393.96 C 86.26 394.01 83.60 393.97 80.94 394.02 C 79.38 392.24 76.85 392.32 74.84 393.20 C 69.69 392.56 64.79 390.55 60.24 388.11 C 60.60 384.49 60.42 380.86 60.57 377.24 Z" />
<path fill="#578192" opacity="1.00" d=" M 52.55 382.90 C 52.32 379.53 56.86 378.71 59.24 377.42 L 60.25 377.78 C 60.32 381.06 60.94 384.59 59.43 387.66 C 57.03 386.24 54.56 384.86 52.55 382.90 Z" />
</g>
<g id="#673817ff">
<path fill="#673817" opacity="1.00" d=" M 432.87 381.70 C 435.66 380.44 438.35 378.92 440.82 377.10 C 442.98 377.21 445.15 377.33 447.32 377.45 C 445.16 384.51 441.34 391.13 435.87 396.15 C 434.76 395.20 433.85 394.09 433.15 392.84 C 433.09 392.30 432.96 391.21 432.90 390.66 L 432.82 389.96 C 432.76 387.20 432.83 384.45 432.87 381.70 Z" />
</g>
<g id="#e5e5e5ff">
<path fill="#e5e5e5" opacity="1.00" d=" M 120.11 379.57 C 122.33 378.85 124.68 378.89 126.99 379.03 C 127.24 379.06 127.74 379.11 127.99 379.14 C 124.14 381.86 120.86 385.26 117.43 388.47 C 115.78 388.62 113.85 388.38 112.55 389.62 C 110.40 391.43 110.69 394.54 110.75 397.07 C 110.43 395.73 110.14 394.38 109.85 393.04 C 107.72 393.68 105.60 394.33 103.49 394.98 C 104.08 393.14 104.84 391.37 105.64 389.61 C 109.78 387.39 113.94 385.10 117.47 381.95 C 118.36 381.17 119.23 380.36 120.11 379.57 Z" />
</g>
<g id="#643616ff">
<path fill="#643616" opacity="1.00" d=" M 393.92 380.26 C 396.04 380.19 398.18 380.13 400.31 380.07 C 401.41 383.04 402.81 385.89 404.47 388.58 C 401.38 388.99 398.29 389.34 395.19 389.64 C 394.74 386.51 394.34 383.38 393.92 380.26 Z" />
<path fill="#643616" opacity="1.00" d=" M 446.99 380.76 C 449.30 381.00 451.61 381.30 453.91 381.68 C 453.65 384.52 453.41 387.37 453.12 390.22 C 449.55 390.19 445.99 389.98 442.45 389.60 C 444.26 386.82 445.80 383.86 446.99 380.76 Z" />
</g>
<g id="#494848ff">
<path fill="#494848" opacity="1.00" d=" M 285.66 381.87 C 288.92 379.86 293.16 381.38 296.83 380.95 L 296.88 381.97 C 293.14 381.99 289.39 382.11 285.66 381.87 Z" />
</g>
<g id="#5f3315ff">
<path fill="#5f3315" opacity="1.00" d=" M 414.70 381.88 L 414.80 381.91 C 414.79 382.74 414.76 384.39 414.75 385.21 C 414.71 387.04 414.63 388.87 414.48 390.69 C 414.43 391.23 414.31 392.30 414.26 392.84 C 413.66 394.05 412.75 395.05 411.91 396.09 C 411.02 395.33 410.14 394.57 409.27 393.80 C 406.67 390.59 404.31 387.17 402.55 383.42 C 406.64 383.39 410.83 383.41 414.70 381.88 Z" />
</g>
<g id="#d29e79ff">
<path fill="#d29e79" opacity="1.00" d=" M 414.80 381.91 C 417.75 382.83 420.64 384.14 423.75 384.40 C 426.93 384.13 429.93 382.86 432.87 381.70 C 432.83 384.45 432.76 387.20 432.82 389.96 C 432.55 388.59 432.20 387.24 431.89 385.90 C 426.18 386.67 420.29 387.22 414.75 385.21 C 414.76 384.39 414.79 382.74 414.80 381.91 Z" />
</g>
<g id="#4e2910ff">
<path fill="#4e2910" opacity="1.00" d=" M 395.19 389.64 C 398.29 389.34 401.38 388.99 404.47 388.58 C 405.92 390.39 406.84 393.14 409.27 393.80 C 409.41 394.39 409.70 395.58 409.84 396.18 C 405.61 397.68 401.30 398.97 397.04 400.39 C 396.35 396.82 395.73 393.23 395.19 389.64 Z" />
<path fill="#4e2910" opacity="1.00" d=" M 437.04 396.05 C 439.04 394.07 440.87 391.93 442.45 389.60 C 445.99 389.98 449.55 390.19 453.12 390.22 C 452.74 393.75 452.26 397.27 451.80 400.80 C 446.85 399.30 441.98 397.59 437.04 396.05 Z" />
</g>
<g id="#fcf18fff">
<path fill="#fcf18f" opacity="1.00" d=" M 414.48 390.69 C 420.62 390.99 426.76 391.02 432.90 390.66 C 432.96 391.21 433.09 392.30 433.15 392.84 C 430.25 392.83 427.35 392.92 424.45 393.05 C 424.39 399.12 424.65 405.20 424.27 411.27 L 423.49 410.35 C 423.35 409.80 423.06 408.70 422.91 408.15 C 423.01 403.09 423.02 398.04 422.97 392.98 C 420.06 392.90 417.16 392.84 414.26 392.84 C 414.31 392.30 414.43 391.23 414.48 390.69 Z" />
</g>
<g id="#768688d6">
<path fill="#768688" opacity="0.84" d=" M 74.84 393.20 C 76.85 392.32 79.38 392.24 80.94 394.02 C 78.86 394.24 76.72 394.24 74.84 393.20 Z" />
</g>
<g id="#7a888ad6">
<path fill="#7a888a" opacity="0.84" d=" M 88.92 393.96 C 90.33 392.49 92.47 392.30 94.25 393.23 C 92.65 394.25 90.73 394.31 88.92 393.96 Z" />
</g>
<g id="#bdc2f5ff">
<path fill="#bdc2f5" opacity="1.00" d=" M 411.91 396.09 C 412.75 395.05 413.66 394.05 414.26 392.84 C 417.16 392.84 420.06 392.90 422.97 392.98 C 423.02 398.04 423.01 403.09 422.91 408.15 C 421.70 406.79 420.64 405.29 420.03 403.57 C 419.57 404.07 419.11 404.57 418.64 405.06 C 420.45 406.63 421.91 408.55 423.49 410.35 L 424.27 411.27 C 424.65 405.20 424.39 399.12 424.45 393.05 C 427.35 392.92 430.25 392.83 433.15 392.84 C 433.85 394.09 434.76 395.20 435.87 396.15 C 432.84 398.96 429.54 401.63 427.56 405.34 C 430.78 402.30 433.74 399.00 437.04 396.05 C 441.98 397.59 446.85 399.30 451.80 400.80 C 455.68 401.80 459.32 403.59 462.45 406.10 C 451.82 415.10 437.85 419.77 424.00 419.99 C 410.14 419.89 396.16 415.33 385.41 406.47 C 388.17 402.74 392.85 401.67 397.04 400.39 C 401.30 398.97 405.61 397.68 409.84 396.18 C 409.70 395.58 409.41 394.39 409.27 393.80 C 410.14 394.57 411.02 395.33 411.91 396.09 M 412.66 397.58 C 414.36 399.71 416.28 401.65 418.12 403.66 C 418.05 403.11 417.92 402.01 417.85 401.46 C 416.12 400.15 414.49 398.73 412.66 397.58 Z" />
</g>
<g id="#e4e4e4ff">
<path fill="#e4e4e4" opacity="1.00" d=" M 287.95 497.64 C 284.39 494.61 287.44 488.02 292.01 488.69 C 294.85 488.55 297.44 491.07 297.20 493.95 C 297.94 498.46 291.36 501.52 288.43 497.99 C 290.23 497.88 292.04 497.83 293.86 497.84 C 294.83 496.71 296.19 495.61 295.91 493.93 C 296.27 490.56 291.24 488.56 289.11 491.10 C 287.26 492.76 288.21 495.48 287.95 497.64 Z" />
</g>
</svg>
