<?xml version="1.0" encoding="UTF-8" ?>
<!DOCTYPE svg PUBLIC "-//W3C//DTD SVG 1.1//EN" "http://www.w3.org/Graphics/SVG/1.1/DTD/svg11.dtd">
<svg width="70pt" height="70pt" viewBox="0 0 70 70" version="1.1" xmlns="http://www.w3.org/2000/svg">
<g id="#000000ff">
<path fill="#000000" opacity="1.00" d=" M 0.00 0.00 L 70.00 0.00 L 70.00 70.00 L 0.00 70.00 L 0.00 0.00 M 15.77 14.12 C 15.76 20.55 15.77 26.97 15.76 33.39 C 19.68 33.22 23.88 34.07 27.56 32.35 C 30.91 30.64 30.99 25.37 27.78 23.43 C 29.99 21.32 30.26 17.27 27.45 15.54 C 23.89 13.61 19.65 14.45 15.77 14.12 M 33.46 14.27 C 33.48 20.67 33.47 27.07 33.47 33.47 C 35.00 33.47 36.53 33.47 38.06 33.46 C 38.05 29.37 38.06 25.28 38.06 21.19 C 39.91 23.48 41.73 25.79 43.56 28.10 C 45.40 25.81 47.28 23.54 49.11 21.23 C 49.12 25.31 49.12 29.39 49.12 33.47 C 50.67 33.47 52.22 33.46 53.77 33.46 C 53.76 27.06 53.77 20.66 53.76 14.26 C 52.30 14.26 50.83 14.27 49.36 14.27 C 47.45 16.65 45.53 19.01 43.62 21.39 C 41.79 19.00 39.91 16.64 38.07 14.26 C 36.53 14.26 35.00 14.27 33.46 14.27 M 15.76 36.61 C 15.76 42.98 15.76 49.35 15.77 55.73 C 19.99 55.48 24.60 56.56 28.49 54.45 C 31.65 52.51 31.39 47.62 28.40 45.61 C 30.96 43.50 30.62 38.96 27.53 37.54 C 23.83 35.98 19.67 36.78 15.76 36.61 M 34.76 50.29 C 37.68 57.73 49.23 58.00 53.00 51.13 C 51.84 50.45 50.68 49.78 49.53 49.10 C 46.89 53.73 39.49 53.12 37.97 47.90 C 43.23 47.82 48.50 47.89 53.76 47.85 C 54.34 42.13 50.03 36.31 43.99 36.57 C 37.09 36.16 31.85 44.06 34.76 50.29 Z" />
<path fill="#000000" opacity="1.00" d=" M 19.82 18.03 C 21.48 18.42 24.53 17.43 24.96 19.79 C 24.77 22.35 21.51 21.37 19.83 21.77 C 19.83 20.84 19.82 18.97 19.82 18.03 Z" />
<path fill="#000000" opacity="1.00" d=" M 19.84 25.51 C 21.73 25.87 25.76 24.89 25.43 27.99 C 24.59 30.25 21.65 29.36 19.80 29.64 C 19.81 28.61 19.83 26.54 19.84 25.51 Z" />
<path fill="#000000" opacity="1.00" d=" M 20.43 40.30 C 22.07 40.70 25.01 39.75 25.52 41.94 C 25.54 44.61 22.13 43.81 20.40 44.07 C 20.41 42.81 20.42 41.56 20.43 40.30 Z" />
<path fill="#000000" opacity="1.00" d=" M 38.17 44.20 C 40.13 39.36 47.68 39.06 49.41 44.21 C 45.67 44.30 41.92 44.30 38.17 44.20 Z" />
<path fill="#000000" opacity="1.00" d=" M 20.42 47.87 C 21.89 47.94 23.37 47.94 24.83 48.17 C 26.55 48.56 26.42 51.34 24.71 51.66 C 23.29 51.88 21.85 51.86 20.41 51.93 C 20.41 50.58 20.41 49.22 20.42 47.87 Z" />
</g>
<g id="#ffffffff">
<path fill="#ffffff" opacity="1.00" d=" M 15.77 14.12 C 19.65 14.45 23.89 13.61 27.45 15.54 C 30.26 17.27 29.99 21.32 27.78 23.43 C 30.99 25.37 30.91 30.64 27.56 32.35 C 23.88 34.07 19.68 33.22 15.76 33.39 C 15.77 26.97 15.76 20.55 15.77 14.12 M 19.82 18.03 C 19.82 18.97 19.83 20.84 19.83 21.77 C 21.51 21.37 24.77 22.35 24.96 19.79 C 24.53 17.43 21.48 18.42 19.82 18.03 M 19.84 25.51 C 19.83 26.54 19.81 28.61 19.80 29.64 C 21.65 29.36 24.59 30.25 25.43 27.99 C 25.76 24.89 21.73 25.87 19.84 25.51 Z" />
<path fill="#ffffff" opacity="1.00" d=" M 33.46 14.27 C 35.00 14.27 36.53 14.26 38.07 14.26 C 39.91 16.64 41.79 19.00 43.62 21.39 C 45.53 19.01 47.45 16.65 49.36 14.27 C 50.83 14.27 52.30 14.26 53.76 14.26 C 53.77 20.66 53.76 27.06 53.77 33.46 C 52.22 33.46 50.67 33.47 49.12 33.47 C 49.12 29.39 49.12 25.31 49.11 21.23 C 47.28 23.54 45.40 25.81 43.56 28.10 C 41.73 25.79 39.91 23.48 38.06 21.19 C 38.06 25.28 38.05 29.37 38.06 33.46 C 36.53 33.47 35.00 33.47 33.47 33.47 C 33.47 27.07 33.48 20.67 33.46 14.27 Z" />
<path fill="#ffffff" opacity="1.00" d=" M 15.76 36.61 C 19.67 36.78 23.83 35.98 27.53 37.54 C 30.62 38.96 30.96 43.50 28.40 45.61 C 31.39 47.62 31.65 52.51 28.49 54.45 C 24.60 56.56 19.99 55.48 15.77 55.73 C 15.76 49.35 15.76 42.98 15.76 36.61 M 20.43 40.30 C 20.42 41.56 20.41 42.81 20.40 44.07 C 22.13 43.81 25.54 44.61 25.52 41.94 C 25.01 39.75 22.07 40.70 20.43 40.30 M 20.42 47.87 C 20.41 49.22 20.41 50.58 20.41 51.93 C 21.85 51.86 23.29 51.88 24.71 51.66 C 26.42 51.34 26.55 48.56 24.83 48.17 C 23.37 47.94 21.89 47.94 20.42 47.87 Z" />
<path fill="#ffffff" opacity="1.00" d=" M 34.76 50.29 C 31.85 44.06 37.09 36.16 43.99 36.57 C 50.03 36.31 54.34 42.13 53.76 47.85 C 48.50 47.89 43.23 47.82 37.97 47.90 C 39.49 53.12 46.89 53.73 49.53 49.10 C 50.68 49.78 51.84 50.45 53.00 51.13 C 49.23 58.00 37.68 57.73 34.76 50.29 M 38.17 44.20 C 41.92 44.30 45.67 44.30 49.41 44.21 C 47.68 39.06 40.13 39.36 38.17 44.20 Z" />
</g>
</svg>
