<?xml version="1.0" encoding="UTF-8" ?>
<!DOCTYPE svg PUBLIC "-//W3C//DTD SVG 1.1//EN" "http://www.w3.org/Graphics/SVG/1.1/DTD/svg11.dtd">
<svg width="90pt" height="90pt" viewBox="0 0 90 90" version="1.1" xmlns="http://www.w3.org/2000/svg">
<g id="#fbaf5dff">
<path fill="#fbaf5d" opacity="1.00" d=" M 43.99 0.00 L 45.99 0.00 C 51.77 1.35 51.32 8.31 49.81 12.69 C 48.13 16.54 41.96 16.56 40.26 12.72 C 38.76 8.34 38.28 1.43 43.99 0.00 M 43.38 10.99 C 43.89 12.45 46.46 12.45 46.70 10.80 C 47.13 8.08 48.01 4.59 45.01 3.03 C 41.99 4.65 42.97 8.24 43.38 10.99 Z" />
<path fill="#fbaf5d" opacity="1.00" d=" M 33.49 10.50 C 34.99 9.92 36.14 11.58 35.82 12.97 C 31.64 15.31 26.95 16.92 23.46 20.37 C 21.02 22.25 19.61 25.31 16.86 26.75 C 16.41 26.34 15.53 25.52 15.08 25.11 C 18.85 18.05 26.02 13.06 33.49 10.50 Z" />
<path fill="#fbaf5d" opacity="1.00" d=" M 54.39 11.34 C 55.70 9.10 59.81 11.05 58.55 13.47 C 57.11 15.32 53.58 13.65 54.39 11.34 Z" />
<path fill="#fbaf5d" opacity="1.00" d=" M 61.13 13.16 C 62.38 12.35 63.54 13.86 64.64 14.30 C 68.50 16.92 72.17 20.09 74.61 24.11 C 75.73 25.22 73.05 27.78 72.13 26.15 C 68.88 22.58 65.64 18.95 61.42 16.48 C 59.89 15.91 59.32 13.69 61.13 13.16 Z" />
<path fill="#fbaf5d" opacity="1.00" d=" M 37.37 16.54 C 39.32 15.88 41.45 15.91 43.32 16.81 C 45.55 18.29 47.65 15.76 49.98 16.08 C 55.84 15.92 60.34 22.52 58.75 27.83 C 53.97 28.96 48.89 28.04 43.99 28.33 C 39.77 28.05 35.32 28.99 31.25 27.78 C 30.11 23.39 32.84 17.92 37.37 16.54 M 34.44 24.66 C 41.49 24.79 48.55 24.78 55.61 24.66 C 54.72 22.94 54.00 20.77 51.97 20.09 C 49.25 18.74 46.66 21.80 43.91 20.88 C 42.00 20.53 40.07 19.09 38.12 20.08 C 36.07 20.75 35.34 22.93 34.44 24.66 Z" />
<path fill="#fbaf5d" opacity="1.00" d=" M 12.18 31.23 C 15.20 29.96 19.01 31.89 19.73 35.09 C 20.11 37.56 19.86 40.11 19.40 42.56 C 18.64 45.91 14.19 47.60 11.38 45.64 C 8.40 43.90 8.72 40.02 8.56 37.05 C 8.34 34.59 9.84 32.08 12.18 31.23 M 12.55 35.33 C 11.99 37.72 11.49 41.67 14.05 43.10 C 16.91 42.51 16.06 39.13 16.33 36.96 C 16.89 34.76 13.55 33.42 12.55 35.33 Z" />
<path fill="#fbaf5d" opacity="1.00" d=" M 73.28 31.44 C 76.65 29.59 81.34 32.15 81.46 36.03 C 81.37 39.29 81.92 43.69 78.65 45.65 C 75.63 47.76 70.90 45.61 70.53 41.94 C 70.01 38.36 69.27 33.33 73.28 31.44 M 74.23 35.12 C 73.59 37.51 72.88 41.93 75.81 43.06 C 78.55 42.37 77.59 38.92 77.91 36.83 C 78.30 34.79 75.51 33.55 74.23 35.12 Z" />
<path fill="#fbaf5d" opacity="1.00" d=" M 5.65 47.75 C 8.35 46.22 11.31 47.51 14.11 47.88 C 16.71 47.71 19.34 46.32 21.93 47.39 C 26.52 48.83 29.15 54.28 28.02 58.82 C 18.72 59.37 9.31 59.36 0.00 58.73 L 0.00 57.15 C 0.41 53.41 1.90 49.30 5.65 47.75 M 3.64 55.48 C 10.72 55.54 17.80 55.64 24.88 55.42 C 23.85 53.69 23.06 51.43 20.90 50.82 C 19.22 50.02 17.52 51.27 15.88 51.59 C 12.89 52.98 10.01 49.41 7.08 51.03 C 5.20 51.79 4.54 53.85 3.64 55.48 Z" />
<path fill="#fbaf5d" opacity="1.00" d=" M 62.00 58.81 C 60.97 54.27 63.51 48.87 68.08 47.41 C 70.64 46.40 73.29 47.64 75.88 47.79 C 78.68 47.53 81.66 46.27 84.35 47.72 C 87.95 49.19 89.54 53.06 90.00 56.67 L 90.00 58.72 C 80.70 59.36 71.30 59.38 62.00 58.81 M 65.18 55.42 C 72.26 55.63 79.34 55.54 86.42 55.48 C 85.51 53.81 84.80 51.71 82.87 50.97 C 80.19 49.55 77.63 52.54 74.91 51.77 C 72.97 51.49 71.04 49.97 69.08 50.85 C 66.97 51.48 66.19 53.72 65.18 55.42 Z" />
<path fill="#fbaf5d" opacity="1.00" d=" M 16.03 62.12 L 16.97 61.33 C 19.38 62.76 20.74 65.34 22.82 67.15 C 26.15 70.49 30.44 72.54 34.69 74.44 C 37.10 75.11 35.18 78.90 33.13 77.50 C 25.84 74.86 18.66 69.97 15.12 62.92 L 16.03 62.12 Z" />
<path fill="#fbaf5d" opacity="1.00" d=" M 42.32 62.40 C 45.67 60.32 50.56 62.97 50.67 66.89 C 50.64 69.47 50.83 72.25 49.70 74.64 C 48.10 77.65 43.53 78.21 41.21 75.75 C 39.23 73.74 39.55 70.65 39.35 68.06 C 39.12 65.79 40.26 63.45 42.32 62.40 M 44.43 65.36 C 42.66 65.71 42.99 67.64 42.96 69.00 C 43.12 70.78 42.78 73.32 45.00 73.92 C 47.64 73.21 46.89 69.99 47.11 67.93 C 47.50 66.28 46.02 64.95 44.43 65.36 Z" />
<path fill="#fbaf5d" opacity="1.00" d=" M 71.60 62.49 C 72.74 60.03 75.95 62.68 74.38 64.48 C 70.11 70.54 63.85 75.26 56.80 77.57 C 54.86 78.63 53.09 75.26 55.31 74.49 C 61.74 72.05 67.38 67.92 71.60 62.49 Z" />
<path fill="#fbaf5d" opacity="1.00" d=" M 36.55 78.54 C 39.26 77.09 42.22 78.46 45.01 78.77 C 48.22 78.25 51.83 76.98 54.72 79.20 C 58.48 81.40 59.19 86.02 58.98 90.00 L 31.31 90.00 C 30.36 85.57 32.17 80.37 36.55 78.54 M 34.39 86.33 C 41.48 86.45 48.57 86.45 55.66 86.33 C 54.70 84.61 53.94 82.41 51.87 81.74 C 49.19 80.52 46.67 83.43 43.96 82.59 C 42.03 82.22 40.07 80.77 38.10 81.77 C 36.08 82.47 35.34 84.64 34.39 86.33 Z" />
</g>
</svg>
