<?xml version="1.0" encoding="UTF-8" ?>
<!DOCTYPE svg PUBLIC "-//W3C//DTD SVG 1.1//EN" "http://www.w3.org/Graphics/SVG/1.1/DTD/svg11.dtd">
<svg width="90pt" height="90pt" viewBox="0 0 90 90" version="1.1" xmlns="http://www.w3.org/2000/svg">
<g id="#abc6caff">
<path fill="#abc6ca" opacity="1.00" d=" M 44.19 0.00 L 45.79 0.00 C 51.75 1.08 51.39 8.37 49.79 12.76 C 48.02 16.56 41.94 16.52 40.23 12.69 C 38.73 8.31 38.33 1.14 44.19 0.00 M 42.96 6.92 C 43.23 8.54 42.62 10.74 44.15 11.86 C 45.46 12.60 46.98 11.43 46.88 10.01 C 47.08 7.59 47.98 4.29 45.00 3.22 C 43.63 4.03 42.43 5.18 42.96 6.92 Z" />
<path fill="#abc6ca" opacity="1.00" d=" M 33.50 10.48 C 35.40 9.63 36.85 12.96 34.83 13.65 C 28.07 16.10 22.31 20.62 17.96 26.31 L 16.87 26.63 C 16.46 26.23 15.63 25.43 15.21 25.03 C 18.80 17.97 26.12 13.08 33.50 10.48 Z" />
<path fill="#abc6ca" opacity="1.00" d=" M 55.48 10.41 C 57.20 9.95 59.89 11.86 58.34 13.56 C 56.49 15.89 52.24 11.95 55.48 10.41 Z" />
<path fill="#abc6ca" opacity="1.00" d=" M 61.15 13.05 L 62.01 12.88 C 66.96 15.28 71.15 19.16 74.36 23.58 C 75.74 24.93 73.74 27.48 72.13 26.30 C 69.02 22.59 65.72 18.97 61.46 16.55 C 59.90 16.10 59.41 13.64 61.15 13.05 Z" />
<path fill="#abc6ca" opacity="1.00" d=" M 37.33 16.55 C 39.97 15.45 42.64 16.36 45.04 17.50 C 47.01 16.90 48.85 15.47 51.06 16.17 C 56.32 16.69 59.34 22.07 59.23 26.96 C 58.91 27.27 58.27 27.90 57.95 28.21 C 50.31 28.52 42.65 28.22 35.00 28.35 C 33.59 28.17 31.31 28.82 30.84 26.92 C 30.86 22.62 32.93 17.89 37.33 16.55 M 37.39 20.45 C 35.75 21.28 35.18 23.10 34.62 24.71 C 41.56 24.75 48.49 24.74 55.42 24.72 C 54.98 21.15 50.88 18.27 47.62 20.48 C 44.16 22.76 40.71 18.05 37.39 20.45 Z" />
<path fill="#abc6ca" opacity="1.00" d=" M 12.12 31.26 C 15.15 29.93 18.98 31.86 19.74 35.07 C 20.12 37.53 19.84 40.06 19.42 42.50 C 18.70 45.88 14.19 47.63 11.37 45.63 C 8.38 43.89 8.72 39.98 8.56 37.00 C 8.35 34.58 9.83 32.12 12.12 31.26 M 12.56 35.30 C 11.88 37.53 11.80 40.73 13.28 42.72 C 16.73 43.83 16.21 39.09 16.33 36.99 C 16.91 34.82 13.69 33.43 12.56 35.30 Z" />
<path fill="#abc6ca" opacity="1.00" d=" M 73.32 31.42 C 76.38 29.81 80.51 31.68 81.32 35.04 C 81.71 37.65 81.42 40.33 80.90 42.91 C 79.84 46.21 75.34 47.59 72.62 45.41 C 69.91 43.52 70.33 39.81 70.15 36.93 C 69.96 34.67 71.27 32.39 73.32 31.42 M 74.23 35.11 C 73.18 36.90 73.95 39.14 74.03 41.09 C 73.84 42.77 76.40 43.59 77.28 42.19 C 78.04 40.22 77.86 38.02 77.88 35.95 C 77.47 34.39 75.27 33.88 74.23 35.11 Z" />
<path fill="#abc6ca" opacity="1.00" d=" M 0.00 57.14 C -0.14 50.96 6.17 44.74 12.35 47.64 C 14.89 49.48 17.34 46.08 20.07 46.99 C 25.55 47.35 29.59 53.84 27.86 58.75 C 22.99 59.65 17.96 58.89 13.03 59.13 C 8.69 58.86 4.20 59.84 0.00 58.41 L 0.00 57.14 M 3.83 55.51 C 10.79 55.53 17.74 55.59 24.70 55.48 C 24.00 53.58 23.06 51.48 20.95 50.84 C 18.49 49.65 16.42 52.21 13.96 51.93 C 11.91 51.89 10.15 50.03 8.05 50.68 C 5.66 51.14 4.45 53.39 3.83 55.51 Z" />
<path fill="#abc6ca" opacity="1.00" d=" M 61.66 57.92 C 61.49 53.26 64.12 48.07 69.03 47.15 C 71.46 46.27 73.69 47.68 75.96 48.31 C 78.14 47.45 80.42 46.34 82.80 47.20 C 87.20 48.11 89.65 52.50 90.00 56.69 L 90.00 58.52 C 82.43 59.89 74.65 58.74 66.99 59.17 C 65.29 58.90 62.59 59.83 61.66 57.92 M 65.37 55.48 C 72.32 55.59 79.27 55.53 86.23 55.52 C 85.61 53.38 84.37 51.11 81.97 50.68 C 79.88 50.04 78.10 51.93 76.05 51.93 C 73.61 52.17 71.55 49.67 69.11 50.84 C 67.00 51.48 66.05 53.58 65.37 55.48 Z" />
<path fill="#abc6ca" opacity="1.00" d=" M 15.91 61.99 C 16.42 61.95 17.44 61.88 17.95 61.84 C 22.31 67.43 27.96 71.98 34.68 74.39 C 36.63 74.85 35.82 78.09 33.90 77.73 C 26.44 75.44 19.79 70.44 15.42 63.99 C 15.55 63.49 15.79 62.49 15.91 61.99 Z" />
<path fill="#abc6ca" opacity="1.00" d=" M 42.41 62.35 C 45.78 60.34 50.63 63.06 50.67 66.97 C 50.56 70.09 51.10 74.08 48.29 76.24 C 45.35 78.63 40.25 76.79 39.78 72.96 C 39.24 69.36 38.41 64.30 42.41 62.35 M 44.39 65.37 C 41.86 66.46 43.23 69.87 43.24 71.96 C 43.05 74.22 46.91 74.31 46.80 72.06 C 47.11 69.80 48.18 64.77 44.39 65.37 Z" />
<path fill="#abc6ca" opacity="1.00" d=" M 71.55 62.48 C 72.51 60.48 75.38 62.02 74.74 63.91 C 70.52 70.30 64.02 75.16 56.77 77.59 C 54.84 78.67 53.17 75.19 55.29 74.47 C 61.71 72.07 67.41 67.97 71.55 62.48 Z" />
<path fill="#abc6ca" opacity="1.00" d=" M 31.70 90.00 C 29.31 85.06 33.58 78.32 39.04 77.87 C 41.15 77.35 43.04 78.61 45.01 79.11 C 47.00 78.65 48.89 77.34 51.02 77.87 C 56.58 78.37 60.46 84.87 58.52 90.00 L 31.70 90.00 M 34.59 86.37 C 41.55 86.42 48.51 86.42 55.46 86.37 C 54.93 83.16 51.39 80.09 48.18 81.95 C 45.54 83.50 42.67 82.34 40.09 81.34 C 37.21 81.31 35.19 83.76 34.59 86.37 Z" />
</g>
</svg>
