<?xml version="1.0" encoding="UTF-8" ?>
<!DOCTYPE svg PUBLIC "-//W3C//DTD SVG 1.1//EN" "http://www.w3.org/Graphics/SVG/1.1/DTD/svg11.dtd">
<svg width="49pt" height="49pt" viewBox="0 0 49 49" version="1.1" xmlns="http://www.w3.org/2000/svg">
<g id="#2d9ad2ff">
<path fill="#2d9ad2" opacity="1.00" d=" M 18.15 1.19 C 30.90 -2.88 45.74 5.88 48.25 19.04 C 51.48 31.81 42.14 45.84 29.15 47.84 C 16.78 50.42 3.56 41.52 1.31 29.09 C -1.41 17.25 6.41 4.31 18.15 1.19 M 16.49 13.83 C 16.48 15.03 16.46 16.22 16.45 17.42 C 24.73 17.55 31.80 24.67 31.92 32.93 C 32.82 32.93 34.63 32.92 35.53 32.92 C 35.56 22.72 26.70 13.80 16.49 13.83 M 16.54 20.18 C 16.51 21.06 16.45 22.83 16.42 23.72 C 21.28 24.21 25.16 28.08 25.53 32.97 C 26.74 32.94 27.95 32.91 29.16 32.88 C 28.91 26.13 23.32 20.46 16.54 20.18 M 17.36 28.45 C 14.70 30.39 18.05 34.39 20.46 32.41 C 23.37 30.67 19.81 26.09 17.36 28.45 Z" />
</g>
<g id="#ffffffff">
<path fill="#ffffff" opacity="1.00" d=" M 16.49 13.83 C 26.70 13.80 35.56 22.72 35.53 32.92 C 34.63 32.92 32.82 32.93 31.92 32.93 C 31.80 24.67 24.73 17.55 16.45 17.42 C 16.46 16.22 16.48 15.03 16.49 13.83 Z" />
<path fill="#ffffff" opacity="1.00" d=" M 16.54 20.18 C 23.32 20.46 28.91 26.13 29.16 32.88 C 27.95 32.91 26.74 32.94 25.53 32.97 C 25.16 28.08 21.28 24.21 16.42 23.72 C 16.45 22.83 16.51 21.06 16.54 20.18 Z" />
<path fill="#ffffff" opacity="1.00" d=" M 17.36 28.45 C 19.81 26.09 23.37 30.67 20.46 32.41 C 18.05 34.39 14.70 30.39 17.36 28.45 Z" />
</g>
</svg>
