<?xml version="1.0" encoding="UTF-8" ?>
<!DOCTYPE svg PUBLIC "-//W3C//DTD SVG 1.1//EN" "http://www.w3.org/Graphics/SVG/1.1/DTD/svg11.dtd">
<svg width="49pt" height="49pt" viewBox="0 0 49 49" version="1.1" xmlns="http://www.w3.org/2000/svg">
<g id="#507299ff">
<path fill="#507299" opacity="1.00" d=" M 22.73 0.00 L 25.06 0.00 C 37.89 0.29 48.92 12.18 48.08 25.00 C 47.86 33.65 42.44 41.88 34.64 45.59 C 26.77 49.51 16.77 48.62 9.76 43.29 C 2.60 38.11 -1.14 28.74 0.43 20.05 C 2.06 9.23 11.83 0.56 22.73 0.00 M 9.30 17.74 C 11.48 25.10 18.30 33.03 26.76 31.30 C 26.79 30.27 26.85 28.22 26.88 27.20 C 29.45 28.02 31.36 29.93 33.53 31.40 C 35.35 31.89 37.27 31.43 39.11 31.37 C 37.53 28.97 35.43 27.00 33.27 25.14 C 35.19 22.91 36.96 20.54 38.33 17.92 C 36.56 17.89 34.79 17.86 33.03 17.83 C 31.35 20.48 29.49 23.07 26.85 24.85 C 26.53 22.53 27.14 19.89 26.19 17.75 C 24.08 17.60 21.95 17.64 19.83 17.69 C 21.39 20.17 21.11 23.12 21.00 25.91 C 17.90 24.08 16.23 20.83 14.67 17.72 C 12.88 17.76 11.09 17.75 9.30 17.74 Z" />
</g>
<g id="#ffffffff">
<path fill="#ffffff" opacity="1.00" d=" M 9.30 17.74 C 11.09 17.75 12.88 17.76 14.67 17.72 C 16.23 20.83 17.90 24.08 21.00 25.91 C 21.11 23.12 21.39 20.17 19.83 17.69 C 21.95 17.64 24.08 17.60 26.19 17.75 C 27.14 19.89 26.53 22.53 26.85 24.85 C 29.49 23.07 31.35 20.48 33.03 17.83 C 34.79 17.86 36.56 17.89 38.33 17.92 C 36.96 20.54 35.19 22.91 33.27 25.14 C 35.43 27.00 37.53 28.97 39.11 31.37 C 37.27 31.43 35.35 31.89 33.53 31.40 C 31.36 29.93 29.45 28.02 26.88 27.20 C 26.85 28.22 26.79 30.27 26.76 31.30 C 18.30 33.03 11.48 25.10 9.30 17.74 Z" />
</g>
</svg>
