<?xml version="1.0" encoding="UTF-8" ?>
<!DOCTYPE svg PUBLIC "-//W3C//DTD SVG 1.1//EN" "http://www.w3.org/Graphics/SVG/1.1/DTD/svg11.dtd">
<svg width="38pt" height="38pt" viewBox="0 0 38 38" version="1.1" xmlns="http://www.w3.org/2000/svg">
<g id="#abc6caff">
<path fill="#abc6ca" opacity="1.00" d=" M 0.23 18.99 C -0.04 8.95 8.95 -0.04 18.97 0.11 C 28.23 -0.26 36.82 7.17 38.00 16.32 L 38.00 21.81 C 36.85 30.28 29.51 37.15 21.05 38.00 L 17.87 38.00 C 8.24 37.42 -0.08 28.72 0.23 18.99 M 19.68 16.66 C 16.70 16.20 13.95 14.75 11.98 12.47 C 10.96 14.30 11.89 16.12 12.76 17.75 L 11.16 17.40 C 11.53 18.83 12.35 19.83 13.60 20.41 C 13.46 20.76 13.17 21.46 13.03 21.81 C 13.93 22.81 15.03 23.50 16.33 23.89 C 14.64 24.92 12.72 25.30 10.78 25.56 C 16.50 28.83 24.72 26.47 26.82 19.96 C 27.89 18.26 26.56 15.42 28.88 14.64 C 28.69 14.29 28.31 13.59 28.12 13.24 L 29.01 11.90 C 28.47 12.19 27.37 12.77 26.82 13.06 C 24.00 10.05 19.17 12.74 19.68 16.66 Z" />
</g>
</svg>
