<?xml version="1.0" encoding="UTF-8" ?>
<!DOCTYPE svg PUBLIC "-//W3C//DTD SVG 1.1//EN" "http://www.w3.org/Graphics/SVG/1.1/DTD/svg11.dtd">
<svg width="49pt" height="49pt" viewBox="0 0 49 49" version="1.1" xmlns="http://www.w3.org/2000/svg">
<g id="#0ea4ffff">
<path fill="#0ea4ff" opacity="1.00" d=" M 16.41 1.62 C 28.84 -3.43 44.27 4.24 47.78 17.17 C 52.05 30.04 43.18 45.11 29.85 47.57 C 16.98 50.68 2.91 41.16 1.11 28.04 C -0.98 17.02 5.89 5.36 16.41 1.62 M 28.36 15.37 C 26.08 16.33 25.78 18.95 25.37 21.08 C 21.52 20.46 18.18 18.43 15.39 15.76 C 15.07 17.81 15.11 19.93 16.41 21.65 C 15.98 21.86 15.12 22.29 14.69 22.51 C 15.64 23.84 16.59 25.16 17.57 26.47 C 17.44 26.82 17.17 27.52 17.03 27.88 C 18.37 28.79 19.71 29.70 21.04 30.62 C 18.77 31.32 16.48 31.95 14.18 32.53 C 18.70 34.26 24.06 35.15 28.41 32.47 C 33.07 29.98 35.28 24.73 35.51 19.67 C 36.30 18.88 37.10 18.10 37.89 17.33 C 37.24 17.47 35.94 17.75 35.28 17.90 C 35.81 17.26 36.86 16.00 37.38 15.37 C 36.38 15.68 35.38 16.00 34.38 16.31 C 32.54 15.43 30.38 14.17 28.36 15.37 Z" />
</g>
<g id="#ffffffff">
<path fill="#ffffff" opacity="1.00" d=" M 28.36 15.37 C 30.38 14.17 32.54 15.43 34.38 16.31 C 35.38 16.00 36.38 15.68 37.38 15.37 C 36.86 16.00 35.81 17.26 35.28 17.90 C 35.94 17.75 37.24 17.47 37.89 17.33 C 37.10 18.10 36.30 18.88 35.51 19.67 C 35.28 24.73 33.07 29.98 28.41 32.47 C 24.06 35.15 18.70 34.26 14.18 32.53 C 16.48 31.95 18.77 31.32 21.04 30.62 C 19.71 29.70 18.37 28.79 17.03 27.88 C 17.17 27.52 17.44 26.82 17.57 26.47 C 16.59 25.16 15.64 23.84 14.69 22.51 C 15.12 22.29 15.98 21.86 16.41 21.65 C 15.11 19.93 15.07 17.81 15.39 15.76 C 18.18 18.43 21.52 20.46 25.37 21.08 C 25.78 18.95 26.08 16.33 28.36 15.37 Z" />
</g>
</svg>
