<?xml version="1.0" encoding="UTF-8" ?>
<!DOCTYPE svg PUBLIC "-//W3C//DTD SVG 1.1//EN" "http://www.w3.org/Graphics/SVG/1.1/DTD/svg11.dtd">
<svg width="49pt" height="49pt" viewBox="0 0 49 49" version="1.1" xmlns="http://www.w3.org/2000/svg">
<g id="#0e59a0ff">
<path fill="#0e59a0" opacity="1.00" d=" M 23.59 0.00 L 25.22 0.00 C 36.05 0.21 45.94 8.49 48.02 19.12 C 50.23 28.93 45.44 39.76 36.69 44.72 C 28.73 49.51 17.99 49.01 10.50 43.52 C 1.29 37.14 -2.15 23.96 2.79 13.90 C 6.44 5.84 14.78 0.38 23.59 0.00 M 23.78 13.83 C 21.78 15.45 21.97 18.17 21.73 20.47 C 20.58 20.47 19.44 20.46 18.29 20.46 C 18.31 21.93 18.30 23.39 18.28 24.86 C 19.48 24.86 20.68 24.87 21.88 24.87 C 21.86 28.48 21.91 32.08 21.88 35.68 C 23.35 35.65 24.83 35.64 26.30 35.67 C 26.27 32.07 26.31 28.47 26.29 24.87 C 27.79 24.88 29.28 24.86 30.78 24.86 C 30.75 23.40 30.75 21.93 30.77 20.47 C 29.22 20.46 27.67 20.46 26.12 20.45 C 26.28 19.43 26.40 18.40 26.49 17.37 C 27.64 16.39 29.37 16.95 30.76 16.72 C 30.77 15.28 30.77 13.84 30.76 12.40 C 28.42 12.63 25.63 11.99 23.78 13.83 Z" />
</g>
<g id="#ffffffff">
<path fill="#ffffff" opacity="1.00" d=" M 23.78 13.83 C 25.63 11.99 28.42 12.63 30.76 12.40 C 30.77 13.84 30.77 15.28 30.76 16.72 C 29.37 16.95 27.64 16.39 26.49 17.37 C 26.40 18.40 26.28 19.43 26.12 20.45 C 27.67 20.46 29.22 20.46 30.77 20.47 C 30.75 21.93 30.75 23.40 30.78 24.86 C 29.28 24.86 27.79 24.88 26.29 24.87 C 26.31 28.47 26.27 32.07 26.30 35.67 C 24.83 35.64 23.35 35.65 21.88 35.68 C 21.91 32.08 21.86 28.48 21.88 24.87 C 20.68 24.87 19.48 24.86 18.28 24.86 C 18.30 23.39 18.31 21.93 18.29 20.46 C 19.44 20.46 20.58 20.47 21.73 20.47 C 21.97 18.17 21.78 15.45 23.78 13.83 Z" />
</g>
</svg>
