<?xml version="1.0" encoding="UTF-8" ?>
<!DOCTYPE svg PUBLIC "-//W3C//DTD SVG 1.1//EN" "http://www.w3.org/Graphics/SVG/1.1/DTD/svg11.dtd">
<svg width="35pt" height="35pt" viewBox="0 0 35 35" version="1.1" xmlns="http://www.w3.org/2000/svg">
<g id="#ffffffff">
<path fill="#ffffff" opacity="1.00" d=" M 16.51 0.00 L 18.30 0.00 C 21.31 0.55 24.13 2.86 24.40 6.05 C 24.61 8.94 24.41 11.88 23.78 14.71 C 22.70 18.82 17.25 20.70 13.81 18.23 C 10.13 15.81 10.67 10.83 10.51 6.99 C 10.36 3.48 13.23 0.67 16.51 0.00 M 15.51 5.34 C 14.27 7.61 15.16 10.52 15.33 13.01 C 15.44 15.15 18.77 15.60 19.50 13.61 C 20.00 11.11 20.23 8.52 19.90 5.98 C 19.19 4.28 16.67 3.87 15.51 5.34 Z" />
<path fill="#ffffff" opacity="1.00" d=" M 0.00 32.47 C 0.19 26.74 3.81 20.66 9.94 20.01 C 12.80 19.01 15.17 21.26 17.82 21.55 C 21.18 19.71 25.29 19.18 28.71 21.22 C 32.95 23.35 34.60 28.18 35.00 32.62 L 35.00 35.00 L 0.51 35.00 C 0.38 34.90 0.13 34.69 0.00 34.58 L 0.00 32.47 M 4.71 30.57 C 13.23 30.47 21.75 30.57 30.27 30.52 C 29.66 27.96 28.18 25.36 25.46 24.64 C 22.44 23.34 19.97 26.60 16.92 26.06 C 14.54 26.02 12.59 23.72 10.15 24.47 C 7.11 24.96 5.30 27.76 4.71 30.57 Z" />
</g>
</svg>
